<svg width="16" height="16" viewBox="0 0 16 16" fill="none" xmlns="http://www.w3.org/2000/svg">
<path d="M11.8363 9.3333C12.6647 9.3333 13.3363 10.0049 13.3363 10.8333V11.4367C13.3363 12.1658 13.018 12.8586 12.4647 13.3335C11.4211 14.2295 9.92756 14.6674 8.0009 14.6674C6.07456 14.6674 4.58202 14.2297 3.54011 13.3339C2.98769 12.8589 2.66992 12.1667 2.66992 11.4382V10.8333C2.66992 10.0049 3.34149 9.3333 4.16992 9.3333H11.8363ZM7.93327 1.33824L8.00112 1.33368C8.25425 1.33368 8.46344 1.52178 8.49655 1.76583L8.50112 1.83368L8.50059 2.33301L10.8342 2.33335C11.6627 2.33335 12.3342 3.00492 12.3342 3.83335V6.83641C12.3342 7.66484 11.6627 8.33641 10.8342 8.33641H5.16756C4.33913 8.33641 3.66756 7.66484 3.66756 6.83641V3.83335C3.66756 3.00492 4.33913 2.33335 5.16756 2.33335L7.50059 2.33301L7.50112 1.83368C7.50112 1.58055 7.68922 1.37135 7.93327 1.33824ZM6.50042 4.33335C6.04045 4.33335 5.66756 4.70623 5.66756 5.16621C5.66756 5.62618 6.04045 5.99907 6.50042 5.99907C6.9604 5.99907 7.33328 5.62618 7.33328 5.16621C7.33328 4.70623 6.9604 4.33335 6.50042 4.33335ZM9.49558 4.33335C9.0356 4.33335 8.66272 4.70623 8.66272 5.16621C8.66272 5.62618 9.0356 5.99907 9.49558 5.99907C9.95555 5.99907 10.3284 5.62618 10.3284 5.16621C10.3284 4.70623 9.95555 4.33335 9.49558 4.33335Z" fill="#829FFF"/>
</svg>
