<svg width="15" height="15" viewBox="0 0 15 15" fill="none" xmlns="http://www.w3.org/2000/svg">
<path d="M12.0867 9.05625L11.4617 8.01875C11.3305 7.7875 11.2117 7.35 11.2117 7.09375V5.5125C11.2117 4.04375 10.3492 2.775 9.10546 2.18125C8.78046 1.60625 8.18046 1.25 7.49296 1.25C6.81171 1.25 6.19923 1.61875 5.87423 2.2C4.65548 2.80625 3.81173 4.0625 3.81173 5.5125V7.09375C3.81173 7.35 3.69298 7.7875 3.56173 8.0125L2.93048 9.05625C2.68048 9.475 2.62423 9.9375 2.78048 10.3625C2.93048 10.7812 3.28673 11.1062 3.74923 11.2625C4.96173 11.675 6.23673 11.875 7.51171 11.875C8.78671 11.875 10.0617 11.675 11.2742 11.2687C11.7117 11.125 12.0492 10.7937 12.2117 10.3625C12.3742 9.93125 12.3305 9.45625 12.0867 9.05625Z" fill="#5F6577"/>
<path d="M9.26954 12.5063C9.00704 13.2313 8.31329 13.75 7.50079 13.75C7.00704 13.75 6.51954 13.55 6.17578 13.1938C5.97578 13.0063 5.82578 12.7563 5.73828 12.5C5.81953 12.5125 5.90078 12.5187 5.98828 12.5312C6.13203 12.55 6.28204 12.5687 6.43204 12.5812C6.78829 12.6125 7.15079 12.6312 7.51329 12.6312C7.86954 12.6312 8.22579 12.6125 8.57579 12.5812C8.70704 12.5687 8.83829 12.5625 8.96329 12.5437C9.06329 12.5312 9.16329 12.5188 9.26954 12.5063Z" fill="#5F6577"/>
</svg>
