<svg width="13" height="13" viewBox="0 0 13 13" fill="none" xmlns="http://www.w3.org/2000/svg">
<path d="M10.9937 9.36861L9.36868 10.9936C9.25421 11.1081 9.09894 11.1724 8.93704 11.1724C8.77515 11.1724 8.61988 11.1081 8.5054 10.9936C8.39092 10.8791 8.32661 10.7239 8.32661 10.562C8.32661 10.4001 8.39092 10.2448 8.5054 10.1303L9.08989 9.54685H2.43755C2.27593 9.54685 2.12094 9.48265 2.00666 9.36837C1.89238 9.25409 1.82818 9.0991 1.82818 8.93748C1.82818 8.77586 1.89238 8.62087 2.00666 8.50659C2.12094 8.39231 2.27593 8.3281 2.43755 8.3281H9.08989L8.50489 7.74361C8.39042 7.62913 8.3261 7.47387 8.3261 7.31197C8.3261 7.15007 8.39042 6.99481 8.50489 6.88033C8.61937 6.76585 8.77464 6.70154 8.93653 6.70154C9.09843 6.70154 9.2537 6.76585 9.36818 6.88033L10.9932 8.50533C11.05 8.56191 11.0951 8.62915 11.1259 8.70321C11.1567 8.77726 11.1726 8.85666 11.1727 8.93687C11.1727 9.01707 11.1569 9.09649 11.1262 9.17058C11.0955 9.24467 11.0505 9.31196 10.9937 9.36861ZM3.6304 6.11861C3.74488 6.23309 3.90015 6.2974 4.06204 6.2974C4.22394 6.2974 4.37921 6.23309 4.49368 6.11861C4.60816 6.00413 4.67248 5.84887 4.67248 5.68697C4.67248 5.52507 4.60816 5.36981 4.49368 5.25533L3.91021 4.67185H10.5625C10.7242 4.67185 10.8792 4.60765 10.9934 4.49337C11.1077 4.37909 11.1719 4.22409 11.1719 4.06248C11.1719 3.90086 11.1077 3.74586 10.9934 3.63158C10.8792 3.5173 10.7242 3.4531 10.5625 3.4531H3.91021L4.49368 2.86861C4.60816 2.75413 4.67248 2.59887 4.67248 2.43697C4.67248 2.27507 4.60816 2.11981 4.49368 2.00533C4.37921 1.89085 4.22394 1.82654 4.06204 1.82654C3.90015 1.82654 3.74488 1.89085 3.6304 2.00533L2.0054 3.63033C1.94859 3.68694 1.90352 3.75421 1.87276 3.82828C1.842 3.90235 1.82617 3.98177 1.82617 4.06197C1.82617 4.14217 1.842 4.22159 1.87276 4.29566C1.90352 4.36973 1.94859 4.437 2.0054 4.49361L3.6304 6.11861Z" fill="#5F6577"/>
</svg>
