<svg width="20" height="11" viewBox="0 0 20 11" fill="none" xmlns="http://www.w3.org/2000/svg">
<path d="M8.95793 5.17729C8.91002 5.22536 8.8531 5.2635 8.79043 5.28953C8.72775 5.31555 8.66055 5.32895 8.59269 5.32895C8.52483 5.32895 8.45763 5.31555 8.39496 5.28953C8.33228 5.2635 8.27536 5.22536 8.22746 5.17729L6.015 2.96483V9.28124C6.015 9.41799 5.96067 9.54914 5.86397 9.64584C5.76727 9.74254 5.63612 9.79686 5.49937 9.79686C5.36262 9.79686 5.23147 9.74254 5.13477 9.64584C5.03807 9.54914 4.98375 9.41799 4.98375 9.28124V2.96483L2.77043 5.17729C2.67356 5.27416 2.54218 5.32858 2.40519 5.32858C2.2682 5.32858 2.13682 5.27416 2.03996 5.17729C1.94309 5.08043 1.88867 4.94905 1.88867 4.81206C1.88867 4.67507 1.94309 4.54369 2.03996 4.44682L5.13371 1.35307C5.18161 1.305 5.23853 1.26686 5.30121 1.24084C5.36388 1.21481 5.43108 1.20142 5.49894 1.20142C5.5668 1.20142 5.634 1.21481 5.69668 1.24084C5.75935 1.26686 5.81627 1.305 5.86418 1.35307L8.95793 4.44682C9.006 4.49473 9.04414 4.55165 9.07016 4.61432C9.09619 4.677 9.10958 4.74419 9.10958 4.81206C9.10958 4.87992 9.09619 4.94712 9.07016 5.00979C9.04414 5.07247 9.006 5.12939 8.95793 5.17729Z" fill="#829FFF"/>
<path d="M11.0421 5.82271C11.09 5.77464 11.1469 5.7365 11.2096 5.71047C11.2722 5.68445 11.3394 5.67105 11.4073 5.67105C11.4752 5.67105 11.5424 5.68445 11.605 5.71047C11.6677 5.7365 11.7246 5.77464 11.7725 5.82271L13.985 8.03517V1.71876C13.985 1.58201 14.0393 1.45086 14.136 1.35416C14.2327 1.25746 14.3639 1.20314 14.5006 1.20314C14.6374 1.20314 14.7685 1.25746 14.8652 1.35416C14.9619 1.45086 15.0163 1.58201 15.0163 1.71876V8.03517L17.2296 5.82271C17.3264 5.72584 17.4578 5.67142 17.5948 5.67142C17.7318 5.67142 17.8632 5.72584 17.96 5.82271C18.0569 5.91957 18.1113 6.05095 18.1113 6.18794C18.1113 6.32493 18.0569 6.45631 17.96 6.55318L14.8663 9.64693C14.8184 9.695 14.7615 9.73314 14.6988 9.75916C14.6361 9.78519 14.5689 9.79858 14.5011 9.79858C14.4332 9.79858 14.366 9.78519 14.3033 9.75916C14.2406 9.73314 14.1837 9.695 14.1358 9.64693L11.0421 6.55318C10.994 6.50527 10.9559 6.44835 10.9298 6.38568C10.9038 6.323 10.8904 6.25581 10.8904 6.18794C10.8904 6.12008 10.9038 6.05288 10.9298 5.99021C10.9559 5.92753 10.994 5.87061 11.0421 5.82271Z" fill="#5F6577"/>
</svg>
