<svg width="19" height="19" viewBox="0 0 19 19" fill="none" xmlns="http://www.w3.org/2000/svg">
<path d="M9.50065 1.58333C5.13065 1.58333 1.58398 5.13 1.58398 9.5C1.58398 13.87 5.13065 17.4167 9.50065 17.4167C13.8707 17.4167 17.4173 13.87 17.4173 9.5C17.4173 5.13 13.8707 1.58333 9.50065 1.58333ZM9.50065 3.95833C10.8148 3.95833 11.8757 5.01916 11.8757 6.33333C11.8757 7.6475 10.8148 8.70833 9.50065 8.70833C8.18648 8.70833 7.12565 7.6475 7.12565 6.33333C7.12565 5.01916 8.18648 3.95833 9.50065 3.95833ZM9.50065 15.2C7.52148 15.2 5.7719 14.1867 4.75065 12.6508C4.7744 11.0754 7.91732 10.2125 9.50065 10.2125C11.0761 10.2125 14.2269 11.0754 14.2507 12.6508C13.2294 14.1867 11.4798 15.2 9.50065 15.2Z" fill="#829FFF"/>
</svg>
