<svg width="16" height="16" viewBox="0 0 16 16" fill="none" xmlns="http://www.w3.org/2000/svg">
<path d="M11.7185 2.95436L10.3851 2.25466C9.21474 1.64045 8.62954 1.33334 8.00001 1.33334C7.37048 1.33334 6.78528 1.64045 5.61487 2.25466L5.40039 2.36721L11.3491 5.76646L14.0269 4.42756C13.5961 3.93967 12.901 3.5749 11.7185 2.95436Z" fill="#FFCAA2"/>
<path d="M14.4989 5.30957L11.8333 6.64236V8.66668C11.8333 8.94281 11.6095 9.16668 11.3333 9.16668C11.0572 9.16668 10.8333 8.94281 10.8333 8.66668V7.14234L8.5 8.30901V14.6027C8.9786 14.4835 9.5232 14.1977 10.3851 13.7453L11.7185 13.0457C13.1529 12.2929 13.8701 11.9165 14.2684 11.2402C14.6667 10.5639 14.6667 9.72221 14.6667 8.03901V7.96101C14.6667 6.69928 14.6667 5.91039 14.4989 5.30957Z" fill="#FFCAA2"/>
<path d="M7.50065 14.6027V8.30901L1.50174 5.30957C1.33398 5.91039 1.33398 6.69928 1.33398 7.96101V8.03901C1.33398 9.72221 1.33398 10.5639 1.73225 11.2402C2.13051 11.9165 2.84773 12.2929 4.28217 13.0457L5.61551 13.7453C6.47748 14.1977 7.02205 14.4835 7.50065 14.6027Z" fill="#FFCAA2"/>
<path d="M1.97266 4.42756L7.99953 7.44101L10.2737 6.30395L4.34924 2.91858L4.28106 2.95436C3.09856 3.57491 2.40346 3.93967 1.97266 4.42756Z" fill="#FFCAA2"/>
</svg>
