<svg width="12" height="12" viewBox="0 0 12 12" fill="none" xmlns="http://www.w3.org/2000/svg">
<path fill-rule="evenodd" clip-rule="evenodd" d="M0.644344 1.38139C0.709839 1.18491 0.922209 1.07873 1.11868 1.14422L1.25114 1.18837C1.25774 1.19057 1.26432 1.19277 1.27088 1.19495C1.58406 1.29933 1.84873 1.38755 2.05684 1.48436C2.27806 1.58728 2.47001 1.71482 2.61556 1.91676C2.7611 2.1187 2.82141 2.34113 2.84908 2.58354C2.87512 2.81159 2.87511 3.09057 2.8751 3.42069V4.74998C2.8751 5.4677 2.8759 5.96825 2.92667 6.3459C2.976 6.7128 3.06622 6.9071 3.2046 7.0455C3.34299 7.18385 3.53727 7.2741 3.90416 7.3234C4.28183 7.3742 4.78239 7.375 5.5001 7.375H9.0001C9.2072 7.375 9.3751 7.54285 9.3751 7.75C9.3751 7.9571 9.2072 8.125 9.0001 8.125H5.47265C4.78887 8.125 4.23771 8.125 3.80422 8.0667C3.35417 8.0062 2.97523 7.87675 2.67427 7.5758C2.37332 7.27485 2.24387 6.8959 2.18336 6.44585C2.12508 6.01235 2.12509 5.4612 2.1251 4.77742V3.4415C2.1251 3.085 2.12453 2.84911 2.10392 2.66861C2.08441 2.49769 2.05034 2.41524 2.00713 2.35529C1.96392 2.29534 1.89648 2.23694 1.7405 2.16438C1.57577 2.08775 1.35217 2.01262 1.01397 1.89989L0.881514 1.85573C0.685039 1.79024 0.578854 1.57787 0.644344 1.38139Z" fill="#829FFF"/>
<path d="M2.87305 3C2.87553 3.12956 2.87553 3.26979 2.87552 3.4207L2.87552 4.75C2.87552 5.4677 2.87632 5.96825 2.92709 6.34595C2.9345 6.40105 2.94284 6.4523 2.95212 6.5H8.01154C8.49124 6.5 8.73109 6.5 8.91894 6.37615C9.10679 6.25225 9.20129 6.0318 9.39024 5.5909L9.60454 5.0909C10.0093 4.14647 10.2116 3.67427 9.98934 3.33713C9.76704 3 9.25329 3 8.22584 3H2.87305Z" fill="#829FFF"/>
<path d="M3.75 9C4.16421 9 4.5 9.3358 4.5 9.75C4.5 10.1642 4.16421 10.5 3.75 10.5C3.33579 10.5 3 10.1642 3 9.75C3 9.3358 3.33579 9 3.75 9Z" fill="#829FFF"/>
<path d="M9 9.75006C9 9.33581 8.6642 9.00006 8.25 9.00006C7.8358 9.00006 7.5 9.33581 7.5 9.75006C7.5 10.1643 7.8358 10.5001 8.25 10.5001C8.6642 10.5001 9 10.1643 9 9.75006Z" fill="#829FFF"/>
</svg>
