<svg width="23" height="23" viewBox="0 0 23 23" fill="none" xmlns="http://www.w3.org/2000/svg">
<path d="M2.07199 8.14551C1.91666 9.20329 1.91666 10.5891 1.91666 12.4583C1.91666 16.0724 1.91666 17.8795 3.03942 19.0022C4.16218 20.125 5.96923 20.125 9.58333 20.125H13.4167C17.0307 20.125 18.8379 20.125 19.9605 19.0022C21.0833 17.8795 21.0833 16.0724 21.0833 12.4583C21.0833 10.5893 21.0833 9.20346 20.928 8.1457C18.7462 9.56386 17.3478 10.4683 16.0522 11.0253V11.5001C16.0522 11.897 15.7304 12.2188 15.3334 12.2188C14.9418 12.2188 14.6232 11.9054 14.6149 11.5158C12.5733 12.054 10.4269 12.054 8.38533 11.5158C8.37699 11.9054 8.05846 12.2188 7.66675 12.2188C7.26979 12.2188 6.948 11.897 6.948 11.5001V11.0252C5.65229 10.4682 4.25386 9.56373 2.07199 8.14551Z" fill="#5F6577"/>
<path fill-rule="evenodd" clip-rule="evenodd" d="M10.1405 2.15625H10.121C10.0121 2.15623 9.92747 2.15622 9.84736 2.16107C8.83111 2.22263 7.9412 2.86403 7.56145 3.80867C7.53135 3.88354 7.48182 4.03225 7.44648 4.13833L7.44276 4.14948C7.34396 4.41774 7.16555 4.65007 6.95901 4.81595C6.74101 4.82301 6.5328 4.83211 6.33377 4.84385C4.75831 4.9368 3.75852 5.19534 3.03942 5.91443C2.80496 6.1489 2.61945 6.41321 2.47269 6.71758C2.52787 6.73642 2.58163 6.76231 2.63275 6.79553C4.64552 8.10383 5.91013 8.92216 6.96091 9.44712C7.0246 9.11534 7.3164 8.86467 7.66676 8.86467C8.06371 8.86467 8.38551 9.18647 8.38551 9.58343V10.0223C10.4166 10.6352 12.5835 10.6352 14.6147 10.0223V9.58343C14.6147 9.18647 14.9365 8.86467 15.3334 8.86467C15.6838 8.86467 15.9756 9.11538 16.0392 9.4472C17.0901 8.92223 18.3547 8.10389 20.3676 6.79553C20.4186 6.76237 20.4723 6.7365 20.5274 6.71768C20.3806 6.41326 20.1951 6.14892 19.9606 5.91443C19.2415 5.19534 18.2417 4.9368 16.6663 4.84385C16.4773 4.83271 16.2801 4.82394 16.0741 4.81705C16.0611 4.80648 16.0481 4.79556 16.035 4.7843C15.8044 4.585 15.624 4.32219 15.5331 4.07568L15.5301 4.06663C15.4957 3.96344 15.4689 3.88312 15.4389 3.80867C15.0593 2.86403 14.1693 2.22263 13.1531 2.16107C13.073 2.15622 12.9883 2.15623 12.8795 2.15625H10.1405ZM14.2002 4.61504L14.1959 4.60475L14.1912 4.59316L14.1869 4.58171L14.1833 4.57218L14.1816 4.56738L14.1776 4.55566L14.1739 4.54484L14.1719 4.53883L14.1692 4.53084L14.1671 4.52409L14.1654 4.51864C14.1278 4.40554 14.1162 4.37196 14.1052 4.34485C13.9326 3.91547 13.5281 3.62392 13.0662 3.59595C13.0353 3.59408 12.9974 3.59375 12.86 3.59375H10.1405C10.0031 3.59375 9.96514 3.59408 9.93428 3.59595C9.4724 3.62392 9.06795 3.91538 8.89529 4.34464L8.89276 4.35133L8.88512 4.37235C8.87877 4.39017 8.87103 4.41245 8.86209 4.43858C8.84626 4.48494 8.82848 4.53815 8.81045 4.5922L8.8087 4.59787L8.80656 4.60461L8.80393 4.61259L8.80193 4.6186L8.79826 4.62943L8.7942 4.64116L8.79249 4.64596L8.789 4.6555L8.78461 4.66696L8.77995 4.67858L8.77595 4.68807L8.77533 4.68947C8.76198 4.72383 8.74784 4.75811 8.73294 4.79228C9.00474 4.79167 9.28801 4.79167 9.58334 4.79167H13.4167C13.7152 4.79167 14.0013 4.79167 14.2758 4.7923C14.2485 4.73375 14.2233 4.6746 14.2002 4.61504Z" fill="#5F6577"/>
</svg>
