<svg width="13" height="13" viewBox="0 0 13 13" fill="none" xmlns="http://www.w3.org/2000/svg">
<g clip-path="url(#clip0_812_2423)">
<path d="M5.72833 1.24762C6.52717 0.448783 7.61062 0 8.74039 0C11.0929 0 13 1.90711 13 4.25964C13 5.38938 12.5513 6.47283 11.7524 7.27167L10.0865 8.9375L8.9375 7.78845L10.6034 6.12262C11.0974 5.62853 11.375 4.9584 11.375 4.25964C11.375 2.80457 10.1954 1.625 8.74039 1.625C8.0416 1.625 7.37147 1.90257 6.87738 2.39667L5.21155 4.0625L4.0625 2.91345L5.72833 1.24762Z" fill="white"/>
<path d="M6.12262 10.6034L7.78845 8.9375L8.9375 10.0865L7.27167 11.7524C6.47283 12.5513 5.38938 13 4.25964 13C1.90711 13 0 11.0929 0 8.74039C0 7.61063 0.448782 6.52717 1.24762 5.72833L2.91345 4.0625L4.0625 5.21155L2.39667 6.87738C1.90257 7.37147 1.625 8.0416 1.625 8.74039C1.625 10.1954 2.80457 11.375 4.25964 11.375C4.9584 11.375 5.62853 11.0974 6.12262 10.6034Z" fill="white"/>
<path d="M4.63733 9.51202L9.51233 4.63703L8.36329 3.48798L3.48828 8.36298L4.63733 9.51202Z" fill="white"/>
</g>
<defs>
<clipPath id="clip0_812_2423">
<rect width="13" height="13" fill="white"/>
</clipPath>
</defs>
</svg>
