<svg width="13" height="13" viewBox="0 0 13 13" fill="none" xmlns="http://www.w3.org/2000/svg">
<path d="M6.5 4.875C5.60251 4.875 4.875 4.14746 4.875 3.25C4.875 2.35254 5.60251 1.625 6.5 1.625C7.39749 1.625 8.125 2.35254 8.125 3.25C8.125 4.14746 7.39749 4.875 6.5 4.875Z" stroke="#829FFF" stroke-width="0.9"/>
<path d="M2.97852 11.375C2.08106 11.375 1.35352 10.6475 1.35352 9.75C1.35352 8.85251 2.08106 8.125 2.97852 8.125C3.87598 8.125 4.60352 8.85251 4.60352 9.75C4.60352 10.6475 3.87598 11.375 2.97852 11.375Z" stroke="#829FFF" stroke-width="0.9"/>
<path d="M10.0215 11.375C9.124 11.375 8.39648 10.6475 8.39648 9.75C8.39648 8.85251 9.124 8.125 10.0215 8.125C10.919 8.125 11.6465 8.85251 11.6465 9.75C11.6465 10.6475 10.919 11.375 10.0215 11.375Z" stroke="#829FFF" stroke-width="0.9"/>
<path d="M10.8327 7.04169C10.8327 5.74743 10.2653 4.58571 9.36563 3.79169M2.16602 7.04169C2.16602 5.74743 2.73342 4.58571 3.63305 3.79169M5.41602 11.2385C5.76225 11.3276 6.12527 11.375 6.49935 11.375C6.87342 11.375 7.23645 11.3276 7.58268 11.2385" stroke="#829FFF" stroke-width="0.9" stroke-linecap="round"/>
</svg>
