<svg width="16" height="16" viewBox="0 0 16 16" fill="none" xmlns="http://www.w3.org/2000/svg">
<path d="M5.2791 5.76C5.2791 6.02509 5.494 6.24 5.7591 6.24C6.02419 6.24 6.2391 6.02509 6.2391 5.76H5.2791ZM5.7591 5.61088H6.2391L6.23909 5.60821L5.7591 5.61088ZM7.82697 3.52V3.03999L7.82428 3.04001L7.82697 3.52ZM10.4112 3.52L10.4139 3.04H10.4112V3.52ZM12.4791 5.61088L11.9991 5.60821V5.61088H12.4791ZM12.4791 8.14912H11.9991L11.9991 8.15181L12.4791 8.14912ZM10.4112 10.24V10.72H10.4139L10.4112 10.24ZM10.2391 9.76C9.97398 9.76 9.75906 9.97491 9.75906 10.24C9.75906 10.5051 9.97398 10.72 10.2391 10.72V9.76ZM5.7591 6.24C6.02419 6.24 6.2391 6.02509 6.2391 5.76C6.2391 5.49491 6.02419 5.28 5.7591 5.28V6.24ZM5.58694 5.76V5.27999L5.58429 5.28001L5.58694 5.76ZM3.5191 7.85088H3.9991L3.99909 7.84819L3.5191 7.85088ZM3.5191 10.3898L3.9991 10.3923V10.3898H3.5191ZM5.58694 12.48L5.58429 12.96H5.58694V12.48ZM8.17122 12.48V12.96H8.17391L8.17122 12.48ZM10.2391 10.3891H9.75906L9.75913 10.3918L10.2391 10.3891ZM10.7191 10.24C10.7191 9.97491 10.5042 9.76 10.2391 9.76C9.97398 9.76 9.75906 9.97491 9.75906 10.24H10.7191ZM5.7591 5.28C5.494 5.28 5.2791 5.49491 5.2791 5.76C5.2791 6.02509 5.494 6.24 5.7591 6.24V5.28ZM8.17129 5.76L8.17391 5.28H8.17129V5.76ZM10.2391 7.85088L9.75913 7.84819V7.85088H10.2391ZM9.75906 10.24C9.75906 10.5051 9.97398 10.72 10.2391 10.72C10.5042 10.72 10.7191 10.5051 10.7191 10.24H9.75906ZM6.2391 5.76L6.2391 5.61088H5.2791V5.76H6.2391ZM6.23909 5.60821C6.23673 5.18403 6.40297 4.77629 6.70127 4.47469L6.01869 3.79964C5.54137 4.28228 5.27533 4.93476 5.2791 5.61355L6.23909 5.60821ZM6.70127 4.47469C6.99951 4.17309 7.4054 4.00234 7.82959 3.99999L7.82428 3.04001C7.1455 3.04376 6.49602 3.317 6.01869 3.79964L6.70127 4.47469ZM7.82697 4H10.4112V3.04L7.82697 3.03999V4ZM10.4086 3.99999C10.8328 4.00234 11.2387 4.17309 11.5369 4.47469L12.2195 3.79964C11.7422 3.317 11.0927 3.04375 10.4139 3.04L10.4086 3.99999ZM11.5369 4.47469C11.8352 4.77629 12.0014 5.18403 11.9991 5.60821L12.9591 5.61355C12.9628 4.93476 12.6968 4.28228 12.2195 3.79964L11.5369 4.47469ZM11.9991 5.61088V8.14912H12.9591V5.61088H11.9991ZM11.9991 8.15181C12.0014 8.57594 11.8352 8.98368 11.5369 9.28531L12.2195 9.96038C12.6968 9.4777 12.9628 8.82522 12.9591 8.14643L11.9991 8.15181ZM11.5369 9.28531C11.2387 9.58688 10.8328 9.75763 10.4086 9.76L10.4139 10.72C11.0927 10.7162 11.7422 10.443 12.2195 9.96038L11.5369 9.28531ZM10.4112 9.76H10.2391V10.72H10.4112V9.76ZM5.7591 5.28L5.58694 5.27999V6.24H5.7591V5.28ZM5.58429 5.28001C4.9055 5.28376 4.256 5.557 3.77869 6.03964L4.46126 6.71469C4.75954 6.41309 5.16541 6.24234 5.58959 6.23999L5.58429 5.28001ZM3.77869 6.03964C3.30137 6.52228 3.03533 7.17478 3.0391 7.85357L3.99909 7.84819C3.99673 7.42406 4.16298 7.01632 4.46126 6.71469L3.77869 6.03964ZM3.0391 7.85088V10.3898H3.9991L3.9991 7.85088H3.0391ZM3.0391 10.3873C3.03168 11.8004 4.17109 12.9522 5.58429 12.96L5.58959 12C4.70647 11.9951 3.99446 11.2754 3.9991 10.3923L3.0391 10.3873ZM5.58694 12.96H8.17122V12H5.58694V12.96ZM8.17391 12.96C8.8527 12.9562 9.50217 12.683 9.97948 12.2004L9.29692 11.5253C8.99868 11.8269 8.59279 11.9976 8.1686 12L8.17391 12.96ZM9.97948 12.2004C10.4568 11.7177 10.7228 11.0652 10.7191 10.3864L9.75913 10.3918C9.76143 10.8159 9.59522 11.2237 9.29692 11.5253L9.97948 12.2004ZM10.7191 10.3891V10.24H9.75906V10.3891H10.7191ZM5.7591 6.24H8.17129V5.28H5.7591V6.24ZM8.1686 6.23999C8.59279 6.24234 8.99868 6.41309 9.29692 6.71469L9.97948 6.03964C9.50217 5.557 8.8527 5.28375 8.17391 5.28L8.1686 6.23999ZM9.29692 6.71469C9.59522 7.01632 9.76143 7.42406 9.75913 7.84819L10.7191 7.85357C10.7228 7.17478 10.4568 6.52228 9.97948 6.03964L9.29692 6.71469ZM9.75913 7.85088L9.75906 10.24H10.7191L10.7191 7.85088H9.75913Z" fill="#5F6577"/>
</svg>
