<svg width="17" height="17" viewBox="0 0 17 17" fill="none" xmlns="http://www.w3.org/2000/svg">
<path d="M11.1511 10.7116C10.3484 10.659 9.71727 9.99491 9.71727 9.18316C9.71727 9.15607 9.7178 9.12897 9.71939 9.10188V9.1056C9.7178 9.0801 9.71673 9.05035 9.71673 9.02007C9.71673 8.20991 10.3489 7.54797 11.1469 7.49963H11.1511C11.9528 7.54319 12.586 8.20354 12.586 9.0121C12.586 9.04504 12.585 9.07744 12.5828 9.10985V9.1056C12.5844 9.13216 12.5855 9.1635 12.5855 9.19485C12.5855 10.0039 11.9528 10.6653 11.1548 10.711H11.1506L11.1511 10.7116ZM5.85667 10.7116C5.05395 10.659 4.42283 9.99491 4.42283 9.18316C4.42283 9.15607 4.42336 9.12897 4.42495 9.10188V9.1056C4.42336 9.0801 4.4223 9.05035 4.4223 9.02007C4.4223 8.20991 5.05448 7.54797 5.85242 7.49963H5.85667C6.65833 7.54319 7.29158 8.20354 7.29158 9.0121C7.29158 9.04504 7.29052 9.07744 7.28839 9.10985V9.1056C7.28998 9.1311 7.29105 9.16085 7.29105 9.19113C7.29105 10.0013 6.65886 10.6632 5.86092 10.7116H5.85667ZM14.0204 3.4345C13.0838 2.9925 11.9958 2.64294 10.8568 2.44053L10.7776 2.42885C10.775 2.42832 10.7718 2.42778 10.7686 2.42778C10.75 2.42778 10.7341 2.43788 10.7256 2.45275C10.6013 2.6711 10.4663 2.94363 10.3447 3.22307L10.3218 3.28203C9.77464 3.19438 9.14352 3.14444 8.5007 3.14444C7.85789 3.14444 7.22677 3.19438 6.61105 3.29053L6.67958 3.2815C6.53614 2.94682 6.39908 2.67482 6.24767 2.41132L6.26945 2.45222C6.26042 2.43682 6.24395 2.42725 6.22536 2.42725C6.2227 2.42725 6.21952 2.42725 6.21686 2.42778C4.9987 2.64188 3.9107 2.99091 2.89389 3.46744L2.97411 3.43344C2.96508 3.43716 2.95764 3.44353 2.95286 3.4515C1.43667 5.59828 0.529297 8.26941 0.529297 11.1525C0.529297 11.6343 0.554797 12.1098 0.604203 12.5784L0.599422 12.5199C0.601016 12.5353 0.608984 12.5481 0.620141 12.5571C1.75702 13.4077 3.07877 14.093 4.50517 14.5429L4.59867 14.5684C4.60292 14.57 4.60823 14.5706 4.61355 14.5706C4.63055 14.5706 4.64542 14.5626 4.65445 14.5504C4.93867 14.1679 5.20908 13.7344 5.44336 13.2796L5.46833 13.2265C5.47152 13.2201 5.47364 13.2122 5.47364 13.2037C5.47364 13.1819 5.45983 13.1638 5.4407 13.1564H5.44017C4.95567 12.9694 4.54608 12.7702 4.15614 12.5417L4.19705 12.564C4.18164 12.555 4.17155 12.5385 4.17155 12.5199C4.17155 12.5035 4.17952 12.4886 4.19173 12.4796C4.27514 12.4169 4.35908 12.3521 4.43877 12.2862C4.44727 12.2793 4.45842 12.275 4.47011 12.275C4.47755 12.275 4.48445 12.2766 4.4903 12.2793H4.48977C5.66277 12.8429 7.03977 13.1723 8.49327 13.1723C9.94677 13.1723 11.3243 12.8429 12.5536 12.2548L12.4968 12.2793C12.5031 12.2761 12.51 12.2745 12.518 12.2745C12.5297 12.2745 12.5409 12.2788 12.5494 12.2857C12.629 12.3515 12.7125 12.4174 12.7969 12.4796C12.8091 12.4891 12.8171 12.504 12.8171 12.5205C12.8171 12.5391 12.807 12.555 12.7927 12.564C12.4415 12.7739 12.0319 12.9726 11.6053 13.1367L11.5495 13.1558C11.5304 13.1633 11.5166 13.1819 11.5166 13.2031C11.5166 13.2116 11.5187 13.2196 11.5225 13.2265C11.7886 13.7365 12.0585 14.1689 12.357 14.5796L12.3358 14.5493C12.3448 14.5621 12.3602 14.5706 12.3767 14.5706C12.382 14.5706 12.3873 14.5695 12.3921 14.5684C13.9141 14.0946 15.238 13.4093 16.411 12.5327L16.3765 12.5577C16.3882 12.5492 16.3956 12.5359 16.3972 12.521C16.4434 12.1045 16.4695 11.6211 16.4695 11.1318C16.4695 8.25507 15.56 5.59085 14.0135 3.4106L14.0411 3.45203C14.0369 3.44353 14.0294 3.43663 14.0209 3.43291L14.0204 3.4345Z" fill="white"/>
</svg>
