<svg width="24" height="24" viewBox="0 0 24 24" fill="none" xmlns="http://www.w3.org/2000/svg">
<path d="M23.8895 5.07294C22.5768 5.56536 21.428 5.40111 20.2799 6.87772C19.1311 5.40111 17.983 5.56536 16.6703 5.07294C15.9324 9.01034 19.1311 9.99486 19.1311 9.99486L18.0134 11.9916C17.5722 12.5352 16.9294 12.8766 16.2319 12.9373C15.5344 12.998 14.8416 12.7727 14.3134 12.314L11.5443 9.64447C9.97734 8.2835 7.97184 7.53406 5.89627 7.53406H4.25377C2.35153 7.53406 0 9.20497 0 12.0152V15.3573C0 17.332 1.29178 18.927 3.79777 18.927H11.8486H15.6269C17.3827 18.927 18.9632 17.8605 19.6202 16.2322L21.4281 9.99486C21.4281 9.99486 24.6275 9.01034 23.8895 5.07294Z" fill="#5F6577"/>
<circle cx="4.5" cy="12.5" r="1.5" fill="#020611"/>
</svg>
