<svg width="13" height="13" viewBox="0 0 13 13" fill="none" xmlns="http://www.w3.org/2000/svg">
<g clip-path="url(#clip0_812_1346)">
<path d="M6.41667 11.8333C9.40821 11.8333 11.8333 9.40821 11.8333 6.41667C11.8333 3.42512 9.40821 1 6.41667 1C3.42512 1 1 3.42512 1 6.41667C1 9.40821 3.42512 11.8333 6.41667 11.8333Z" stroke="#5F6577"/>
<path d="M6.5 9.29999V9.57082V9.84165" stroke="#5F6577" stroke-linecap="round"/>
<path d="M6.5 3V3.27083V3.54167" stroke="#5F6577" stroke-linecap="round"/>
<path d="M8.04297 5.06254C8.04297 4.31466 7.31546 3.70837 6.41797 3.70837C5.52048 3.70837 4.79297 4.31466 4.79297 5.06254C4.79297 5.81042 5.52048 6.41671 6.41797 6.41671C7.31546 6.41671 8.04297 7.02299 8.04297 7.77087C8.04297 8.51875 7.31546 9.12504 6.41797 9.12504C5.52048 9.12504 4.79297 8.51875 4.79297 7.77087" stroke="#5F6577" stroke-linecap="round"/>
</g>
<defs>
<clipPath id="clip0_812_1346">
<rect width="13" height="13" fill="white"/>
</clipPath>
</defs>
</svg>
