<svg width="24" height="23" viewBox="0 0 24 23" fill="none" xmlns="http://www.w3.org/2000/svg">
<path fill-rule="evenodd" clip-rule="evenodd" d="M4 7.83333C4 7.3731 4.39797 7 4.88889 7H19.1111C19.602 7 20 7.3731 20 7.83333C20 8.29357 19.602 8.66667 19.1111 8.66667H4.88889C4.39797 8.66667 4 8.29357 4 7.83333ZM6.66667 12C6.66667 11.5398 7.06464 11.1667 7.55556 11.1667H16.4444C16.9354 11.1667 17.3333 11.5398 17.3333 12C17.3333 12.4602 16.9354 12.8333 16.4444 12.8333H7.55556C7.06464 12.8333 6.66667 12.4602 6.66667 12ZM9.33333 16.1667C9.33333 15.7064 9.73131 15.3333 10.2222 15.3333H13.7778C14.2687 15.3333 14.6667 15.7064 14.6667 16.1667C14.6667 16.6269 14.2687 17 13.7778 17H10.2222C9.73131 17 9.33333 16.6269 9.33333 16.1667Z" fill="#5F6577"/>
</svg>
