<svg width="18" height="18" viewBox="0 0 18 18" fill="none" xmlns="http://www.w3.org/2000/svg">
<g clip-path="url(#clip0_812_2400)">
<path d="M6.15371 4.53445C6.07505 4.45606 6.01264 4.36292 5.97005 4.26036C5.92747 4.1578 5.90555 4.04784 5.90555 3.93679C5.90555 3.82575 5.92747 3.71579 5.97005 3.61323C6.01264 3.51067 6.07505 3.41753 6.15371 3.33914L8.40371 1.08914C8.4821 1.01048 8.57524 0.948066 8.6778 0.90548C8.78036 0.862894 8.89032 0.840973 9.00137 0.840973C9.11242 0.840973 9.22237 0.862894 9.32493 0.90548C9.42749 0.948066 9.52064 1.01048 9.59902 1.08914L11.849 3.33914C12.0075 3.49765 12.0966 3.71263 12.0966 3.93679C12.0966 4.16096 12.0075 4.37594 11.849 4.53445C11.6905 4.69296 11.4755 4.78201 11.2514 4.78201C11.0272 4.78201 10.8122 4.69296 10.6537 4.53445L9.84442 3.72656V6.75C9.84442 6.97377 9.75552 7.18839 9.59729 7.34662C9.43905 7.50485 9.22444 7.59375 9.00067 7.59375C8.77689 7.59375 8.56228 7.50485 8.40404 7.34662C8.24581 7.18839 8.15692 6.97377 8.15692 6.75V3.72656L7.34762 4.53445C7.26926 4.6129 7.1762 4.67513 7.07377 4.7176C6.97134 4.76006 6.86155 4.78191 6.75067 4.78191C6.63978 4.78191 6.52999 4.76006 6.42756 4.7176C6.32513 4.67513 6.23207 4.6129 6.15371 4.53445ZM10.6537 13.4641L9.84442 14.2734V11.25C9.84442 11.0262 9.75552 10.8116 9.59729 10.6534C9.43905 10.4951 9.22444 10.4062 9.00067 10.4062C8.77689 10.4062 8.56228 10.4951 8.40404 10.6534C8.24581 10.8116 8.15692 11.0262 8.15692 11.25V14.2734L7.34762 13.4634C7.26913 13.3849 7.17596 13.3227 7.07341 13.2802C6.97087 13.2377 6.86096 13.2159 6.74996 13.2159C6.63897 13.2159 6.52906 13.2377 6.42651 13.2802C6.32397 13.3227 6.23079 13.3849 6.15231 13.4634C6.07382 13.5419 6.01156 13.6351 5.96909 13.7376C5.92661 13.8402 5.90475 13.9501 5.90475 14.0611C5.90475 14.1721 5.92661 14.282 5.96909 14.3845C6.01156 14.4871 6.07382 14.5803 6.15231 14.6587L8.40231 16.9087C8.48069 16.9874 8.57384 17.0498 8.6764 17.0924C8.77896 17.135 8.88891 17.1569 8.99996 17.1569C9.11101 17.1569 9.22097 17.135 9.32353 17.0924C9.42609 17.0498 9.51923 16.9874 9.59762 16.9087L11.8476 14.6587C12.0061 14.5002 12.0952 14.2853 12.0952 14.0611C12.0952 13.8369 12.0061 13.6219 11.8476 13.4634C11.6891 13.3049 11.4741 13.2159 11.25 13.2159C11.0258 13.2159 10.8108 13.3049 10.6523 13.4634L10.6537 13.4641ZM16.9115 8.40164L14.6615 6.15164C14.503 5.99313 14.288 5.90408 14.0639 5.90408C13.8397 5.90408 13.6247 5.99313 13.4662 6.15164C13.3077 6.31015 13.2187 6.52513 13.2187 6.74929C13.2187 6.97346 13.3077 7.18844 13.4662 7.34695L14.2741 8.15625H11.2507C11.0269 8.15625 10.8123 8.24514 10.654 8.40338C10.4958 8.56161 10.4069 8.77622 10.4069 9C10.4069 9.22377 10.4958 9.43838 10.654 9.59662C10.8123 9.75485 11.0269 9.84375 11.2507 9.84375H14.2741L13.4641 10.653C13.3056 10.8116 13.2165 11.0265 13.2165 11.2507C13.2165 11.4749 13.3056 11.6898 13.4641 11.8484C13.6226 12.0069 13.8376 12.0959 14.0618 12.0959C14.2859 12.0959 14.5009 12.0069 14.6594 11.8484L16.9094 9.59836C16.9881 9.52002 17.0506 9.42691 17.0932 9.32437C17.1359 9.22184 17.1579 9.1119 17.1579 9.00085C17.158 8.8898 17.1361 8.77983 17.0936 8.67724C17.0511 8.57466 16.9887 8.48148 16.9101 8.40304L16.9115 8.40164ZM3.72723 9.84375H6.75067C6.97444 9.84375 7.18905 9.75485 7.34729 9.59662C7.50552 9.43838 7.59442 9.22377 7.59442 9C7.59442 8.77622 7.50552 8.56161 7.34729 8.40338C7.18905 8.24514 6.97444 8.15625 6.75067 8.15625H3.72723L4.53723 7.34695C4.69574 7.18844 4.78479 6.97346 4.78479 6.74929C4.78479 6.52513 4.69574 6.31015 4.53723 6.15164C4.37872 5.99313 4.16374 5.90408 3.93957 5.90408C3.71541 5.90408 3.50042 5.99313 3.34192 6.15164L1.09192 8.40164C1.01326 8.48003 0.950843 8.57317 0.908257 8.67573C0.865671 8.77829 0.84375 8.88825 0.84375 8.99929C0.84375 9.11034 0.865671 9.2203 0.908257 9.32286C0.950843 9.42542 1.01326 9.51856 1.09192 9.59695L3.34192 11.847C3.4204 11.9254 3.51358 11.9877 3.61612 12.0302C3.71867 12.0726 3.82858 12.0945 3.93957 12.0945C4.05057 12.0945 4.16047 12.0726 4.26302 12.0302C4.36557 11.9877 4.45874 11.9254 4.53723 11.847C4.61571 11.7685 4.67797 11.6753 4.72045 11.5727C4.76292 11.4702 4.78479 11.3603 4.78479 11.2493C4.78479 11.1383 4.76292 11.0284 4.72045 10.9258C4.67797 10.8233 4.61571 10.7301 4.53723 10.6516L3.72723 9.84375Z" fill="#8990A3"/>
</g>
<defs>
<clipPath id="clip0_812_2400">
<rect width="18" height="18" fill="white"/>
</clipPath>
</defs>
</svg>
