<svg width="12" height="13" viewBox="0 0 12 13" fill="none" xmlns="http://www.w3.org/2000/svg">
<path d="M10.1475 5.39797L6.39746 9.14797C6.3452 9.20041 6.28311 9.24202 6.21473 9.27041C6.14636 9.2988 6.07306 9.31342 5.99902 9.31342C5.92499 9.31342 5.85169 9.2988 5.78331 9.27041C5.71494 9.24202 5.65284 9.20041 5.60058 9.14797L1.85059 5.39797C1.74491 5.2923 1.68555 5.14898 1.68555 4.99954C1.68555 4.85009 1.74491 4.70677 1.85059 4.6011C1.95626 4.49543 2.09958 4.43606 2.24902 4.43606C2.39847 4.43606 2.54179 4.49543 2.64746 4.6011L5.99949 7.95313L9.35152 4.60063C9.45719 4.49496 9.60052 4.43559 9.74996 4.43559C9.8994 4.43559 10.0427 4.49496 10.1484 4.60063C10.2541 4.7063 10.3134 4.84963 10.3134 4.99907C10.3134 5.14851 10.2541 5.29183 10.1484 5.39751L10.1475 5.39797Z" fill="#829FFF"/>
</svg>
