<svg width="13" height="13" viewBox="0 0 13 13" fill="none" xmlns="http://www.w3.org/2000/svg">
<path d="M10.9932 5.30613L6.93074 9.36863C6.87413 9.42544 6.80686 9.47052 6.73279 9.50127C6.65872 9.53203 6.57931 9.54786 6.4991 9.54786C6.4189 9.54786 6.33949 9.53203 6.26542 9.50127C6.19135 9.47052 6.12408 9.42544 6.06746 9.36863L2.00496 5.30613C1.89049 5.19165 1.82617 5.03639 1.82617 4.87449C1.82617 4.71259 1.89049 4.55733 2.00496 4.44285C2.11944 4.32837 2.27471 4.26406 2.4366 4.26406C2.5985 4.26406 2.75377 4.32837 2.86824 4.44285L6.49961 8.07422L10.131 4.44234C10.2455 4.32786 10.4007 4.26355 10.5626 4.26355C10.7245 4.26355 10.8798 4.32786 10.9943 4.44234C11.1087 4.55682 11.1731 4.71209 11.1731 4.87398C11.1731 5.03588 11.1087 5.19114 10.9943 5.30562L10.9932 5.30613Z" fill="white"/>
</svg>
