<svg width="13" height="13" viewBox="0 0 13 13" fill="none" xmlns="http://www.w3.org/2000/svg">
<path d="M10.9937 9.36864L9.36868 10.9936C9.25421 11.1081 9.09894 11.1724 8.93704 11.1724C8.77515 11.1724 8.61988 11.1081 8.5054 10.9936C8.39092 10.8792 8.32661 10.7239 8.32661 10.562C8.32661 10.4001 8.39092 10.2448 8.5054 10.1304L9.08989 9.54688H2.43755C2.27593 9.54688 2.12094 9.48268 2.00666 9.3684C1.89238 9.25412 1.82818 9.09913 1.82818 8.93751C1.82818 8.77589 1.89238 8.6209 2.00666 8.50662C2.12094 8.39234 2.27593 8.32813 2.43755 8.32813H9.08989L8.50489 7.74364C8.39042 7.62916 8.3261 7.4739 8.3261 7.312C8.3261 7.1501 8.39042 6.99484 8.50489 6.88036C8.61937 6.76588 8.77464 6.70157 8.93653 6.70157C9.09843 6.70157 9.2537 6.76588 9.36818 6.88036L10.9932 8.50536C11.05 8.56194 11.0951 8.62918 11.1259 8.70324C11.1567 8.77729 11.1726 8.85669 11.1727 8.9369C11.1727 9.0171 11.1569 9.09652 11.1262 9.17061C11.0955 9.2447 11.0505 9.312 10.9937 9.36864ZM3.6304 6.11864C3.74488 6.23312 3.90015 6.29743 4.06204 6.29743C4.22394 6.29743 4.37921 6.23312 4.49368 6.11864C4.60816 6.00416 4.67248 5.8489 4.67248 5.687C4.67248 5.5251 4.60816 5.36984 4.49368 5.25536L3.91021 4.67188H10.5625C10.7242 4.67188 10.8792 4.60768 10.9934 4.4934C11.1077 4.37912 11.1719 4.22412 11.1719 4.06251C11.1719 3.90089 11.1077 3.7459 10.9934 3.63162C10.8792 3.51734 10.7242 3.45313 10.5625 3.45313H3.91021L4.49368 2.86864C4.60816 2.75416 4.67248 2.5989 4.67248 2.437C4.67248 2.2751 4.60816 2.11984 4.49368 2.00536C4.37921 1.89088 4.22394 1.82657 4.06204 1.82657C3.90015 1.82657 3.74488 1.89088 3.6304 2.00536L2.0054 3.63036C1.94859 3.68697 1.90352 3.75424 1.87276 3.82831C1.842 3.90238 1.82617 3.9818 1.82617 4.062C1.82617 4.1422 1.842 4.22162 1.87276 4.29569C1.90352 4.36976 1.94859 4.43703 2.0054 4.49364L3.6304 6.11864Z" fill="white"/>
</svg>
