<svg width="10" height="10" viewBox="0 0 10 10" fill="none" xmlns="http://www.w3.org/2000/svg">
<g clip-path="url(#clip0_812_1298)">
<path d="M8.53543 1.46441C7.63223 0.560488 6.37906 -0.000273338 5 9.99542e-08C3.62096 -0.000273338 2.36762 0.560488 1.46439 1.46441C0.560469 2.36764 -0.000292854 3.62096 1.1474e-07 5C-0.000292854 6.37906 0.560469 7.63238 1.46439 8.53561C2.36762 9.43953 3.62096 10.0003 5 10C6.37906 10.0003 7.63223 9.43953 8.53543 8.53561C9.43951 7.63238 10.0003 6.37906 10 5C10.0003 3.62096 9.43953 2.36764 8.53543 1.46441ZM7.80223 2.19777C8.52025 2.91652 8.96266 3.90393 8.96297 5C8.96268 6.09607 8.52025 7.08348 7.80223 7.80223C7.08334 8.52025 6.09592 8.96268 5 8.96295C3.90393 8.96268 2.91652 8.52025 2.19777 7.80223C1.47973 7.08348 1.03732 6.09607 1.03703 5C1.0373 3.90395 1.47973 2.91652 2.19775 2.19777C2.9165 1.47975 3.90393 1.03732 4.99998 1.03703C6.09592 1.03734 7.08334 1.47975 7.80223 2.19777Z" fill="#FFEC9F"/>
<path d="M4.99906 6.49237C4.68715 6.49237 4.43164 6.74802 4.43164 7.05979C4.43164 7.37157 4.68715 7.62706 4.99906 7.62706C5.31082 7.62706 5.56646 7.37155 5.56646 7.05979C5.56646 6.74802 5.31082 6.49237 4.99906 6.49237Z" fill="#FFEC9F"/>
<path d="M5.00029 6.09347C5.12789 6.09347 5.30701 5.5298 5.35301 5.36504C5.49609 4.88789 5.61371 4.23758 5.61371 3.69982C5.61371 3.05791 5.43461 2.37299 5.00029 2.37299C4.56568 2.37299 4.38672 3.05789 4.38672 3.69982C4.38672 4.2376 4.50449 4.88791 4.64756 5.36504C4.69357 5.5298 4.8724 6.09347 5.00029 6.09347Z" fill="#FFEC9F"/>
</g>
<defs>
<clipPath id="clip0_812_1298">
<rect width="10" height="10" fill="white"/>
</clipPath>
</defs>
</svg>
