<svg width="13" height="13" viewBox="0 0 13 13" fill="none" xmlns="http://www.w3.org/2000/svg">
<g clip-path="url(#clip0_812_1292)">
<path d="M11.0961 1.90374C9.9219 0.728635 8.29278 -0.000355339 6.5 1.2994e-07C4.70724 -0.000355339 3.0779 0.728635 1.90371 1.90374C0.72861 3.07793 -0.00038071 4.70724 1.49161e-07 6.5C-0.00038071 8.29278 0.72861 9.9221 1.90371 11.0963C3.0779 12.2714 4.70724 13.0004 6.5 13C8.29278 13.0004 9.9219 12.2714 11.0961 11.0963C12.2714 9.9221 13.0004 8.29278 13 6.5C13.0004 4.70724 12.2714 3.07793 11.0961 1.90374ZM10.1429 2.85711C11.0763 3.79148 11.6515 5.0751 11.6519 6.5C11.6515 7.9249 11.0763 9.20852 10.1429 10.1429C9.20834 11.0763 7.92469 11.6515 6.5 11.6518C5.0751 11.6515 3.79148 11.0763 2.85711 10.1429C1.92364 9.20852 1.34852 7.9249 1.34814 6.5C1.3485 5.07513 1.92364 3.79148 2.85708 2.85711C3.79146 1.92367 5.0751 1.34852 6.49997 1.34814C7.92469 1.34855 9.20834 1.92367 10.1429 2.85711Z" fill="#FFDA44"/>
<path d="M6.49937 8.44003C6.09388 8.44003 5.76172 8.77237 5.76172 9.17768C5.76172 9.58299 6.09388 9.91513 6.49937 9.91513C6.90465 9.91513 7.23699 9.58297 7.23699 9.17768C7.23699 8.77237 6.90465 8.44003 6.49937 8.44003Z" fill="#FFDA44"/>
<path d="M6.50077 7.92153C6.66665 7.92153 6.89951 7.18876 6.9593 6.97457C7.14531 6.35427 7.29822 5.50887 7.29822 4.80979C7.29822 3.9753 7.06538 3.0849 6.50077 3.0849C5.93578 3.0849 5.70312 3.97527 5.70312 4.80979C5.70312 5.50889 5.85623 6.3543 6.04222 6.97457C6.10204 7.18876 6.33451 7.92153 6.50077 7.92153Z" fill="#FFDA44"/>
</g>
<defs>
<clipPath id="clip0_812_1292">
<rect width="13" height="13" fill="white"/>
</clipPath>
</defs>
</svg>
