<svg width="15" height="15" viewBox="0 0 15 15" fill="none" xmlns="http://www.w3.org/2000/svg">
<path d="M12.5 3.50006C12.5 3.15003 12.4998 2.97488 12.4316 2.84119C12.3718 2.72359 12.2764 2.62804 12.1589 2.56812C12.0252 2.5 11.8498 2.5 11.4997 2.5H3.49976C3.14972 2.5 2.97488 2.5 2.84119 2.56812C2.72359 2.62804 2.62804 2.72359 2.56812 2.84119C2.5 2.97488 2.5 3.15003 2.5 3.50006V3.96085C2.5 4.11372 2.5 4.19021 2.51727 4.26214C2.53258 4.32591 2.55789 4.38683 2.59216 4.44275C2.6308 4.5058 2.68494 4.55994 2.79297 4.66797L5.95718 7.83219C6.06527 7.94025 6.11902 7.994 6.15767 8.05713C6.19194 8.113 6.2176 8.17413 6.23291 8.23794C6.25 8.30913 6.25 8.38469 6.25 8.5345V11.5069C6.25 12.0426 6.25 12.3107 6.36281 12.472C6.46138 12.6129 6.61338 12.7069 6.78344 12.732C6.97819 12.7608 7.21794 12.6411 7.69713 12.4015L8.19713 12.1515C8.39781 12.0512 8.49787 12.0008 8.57119 11.9259C8.636 11.8597 8.68563 11.7803 8.71581 11.6928C8.75 11.5937 8.75 11.4812 8.75 11.2569V8.53912C8.75 8.38625 8.75 8.30988 8.76725 8.23794C8.78256 8.17413 8.80788 8.113 8.84219 8.05713C8.88056 7.99444 8.93419 7.94081 9.04081 7.83419L9.043 7.83219L12.2072 4.66797C12.3152 4.55988 12.369 4.50582 12.4077 4.44275C12.4419 4.38683 12.4676 4.32591 12.4829 4.26214C12.5 4.19094 12.5 4.11527 12.5 3.9655V3.50006Z" stroke="#5F6577" stroke-width="1.2" stroke-linecap="round" stroke-linejoin="round"/>
</svg>
