<svg width="9" height="11" viewBox="0 0 9 11" fill="none" xmlns="http://www.w3.org/2000/svg">
<path d="M5.20539 10.8875C6.86028 10.5331 9 9.26111 9 5.97193C9 2.97869 6.94943 0.9855 5.47491 0.0696545C5.14774 -0.133575 4.76471 0.133693 4.76471 0.538059V1.57235C4.76471 2.38795 4.44378 3.87668 3.55199 4.4959C3.0967 4.81204 2.60498 4.33887 2.54965 3.76172L2.50421 3.28779C2.45139 2.73683 1.92622 2.40237 1.5141 2.73829C0.773719 3.34175 0 4.39849 0 5.97193C0 9.99437 2.8 11 4.19998 11C4.28141 11 4.36701 10.9974 4.45611 10.9919C3.76481 10.9288 2.64706 10.4705 2.64706 8.98858C2.64706 7.82938 3.43857 7.04515 4.03994 6.66395C4.20168 6.5614 4.39099 6.69455 4.39099 6.89547V7.22876C4.39099 7.48382 4.48332 7.88255 4.70308 8.15548C4.9518 8.46433 5.31683 8.14077 5.34626 7.73457C5.35558 7.60645 5.47618 7.52477 5.58005 7.58965C5.91956 7.80166 6.35294 8.25452 6.35294 8.98858C6.35294 10.147 5.75524 10.68 5.20539 10.8875Z" fill="#FF9999"/>
</svg>
