<svg width="15" height="15" viewBox="0 0 15 15" fill="none" xmlns="http://www.w3.org/2000/svg">
<path fill-rule="evenodd" clip-rule="evenodd" d="M5.46875 1.25H6.09375C7.8615 1.25 8.74537 1.25 9.29456 1.79918C9.84375 2.34835 9.84375 3.23223 9.84375 5V10.1562H10.8259C11.5779 10.1562 12.1875 10.7659 12.1875 11.5179V11.5625C12.1875 11.8214 12.3974 12.0312 12.6562 12.0312C12.9151 12.0312 13.125 11.8214 13.125 11.5625V8.59375L12.3598 8.33869C11.9769 8.21106 11.7188 7.85281 11.7188 7.44931V5.9375C11.7188 5.41973 12.1385 5 12.6562 5H13.125V4.76404C13.125 4.64839 13.1248 4.60865 13.1228 4.57233C13.1019 4.20071 12.9346 3.85253 12.6574 3.60408C12.6303 3.5798 12.5994 3.55484 12.5091 3.48259L11.7384 2.86605C11.5363 2.70432 11.5035 2.40934 11.6652 2.20719C11.8269 2.00504 12.1219 1.97226 12.3241 2.13399L13.1049 2.75861C13.1813 2.81977 13.2341 2.86197 13.2832 2.90601C13.7451 3.32009 14.024 3.90039 14.0588 4.51976C14.0625 4.58564 14.0625 4.65319 14.0625 4.75111V11.5625C14.0625 12.3392 13.4329 12.9688 12.6562 12.9688C11.8796 12.9688 11.25 12.3392 11.25 11.5625V11.5179C11.25 11.2836 11.0601 11.0938 10.8259 11.0938H9.84375V13.2812H10.5459C10.8047 13.2812 11.0146 13.4911 11.0146 13.75C11.0146 14.0089 10.8047 14.2188 10.5459 14.2188H1.09375C0.834869 14.2188 0.625 14.0089 0.625 13.75C0.625 13.4911 0.834869 13.2812 1.09375 13.2812H1.71875V5C1.71875 3.23223 1.71875 2.34835 2.26793 1.79918C2.8171 1.25 3.70098 1.25 5.46875 1.25ZM4.375 10.1562C4.11612 10.1562 3.90625 10.3661 3.90625 10.625C3.90625 10.8839 4.11612 11.0938 4.375 11.0938H7.5C7.75887 11.0938 7.96875 10.8839 7.96875 10.625C7.96875 10.3661 7.75887 10.1562 7.5 10.1562H4.375ZM6.875 3.75H5C4.41074 3.75 4.11612 3.75 3.93306 3.93306C3.75 4.11612 3.75 4.41074 3.75 5C3.75 5.58926 3.75 5.88388 3.93306 6.06694C4.11612 6.25 4.41074 6.25 5 6.25H6.875C7.46425 6.25 7.75887 6.25 7.94194 6.06694C8.125 5.88388 8.125 5.58926 8.125 5C8.125 4.41074 8.125 4.11612 7.94194 3.93306C7.75887 3.75 7.46425 3.75 6.875 3.75Z" fill="#FF5054"/>
</svg>
