<svg width="21" height="21" viewBox="0 0 21 21" fill="none" xmlns="http://www.w3.org/2000/svg">
<path fill-rule="evenodd" clip-rule="evenodd" d="M3.03141 3.03141C1.75 4.31281 1.75 6.37521 1.75 10.5C1.75 14.6248 1.75 16.6872 3.03141 17.9686C4.31281 19.25 6.37521 19.25 10.5 19.25C14.6248 19.25 16.6872 19.25 17.9686 17.9686C19.25 16.6872 19.25 14.6248 19.25 10.5C19.25 6.37521 19.25 4.31281 17.9686 3.03141C16.6872 1.75 14.6248 1.75 10.5 1.75C6.37521 1.75 4.31281 1.75 3.03141 3.03141ZM15.3792 9.17009C15.6111 8.89166 15.5735 8.47788 15.2951 8.24585C15.0167 8.01383 14.6029 8.05144 14.3708 8.32988L12.7985 10.2166C12.4742 10.606 12.2749 10.8426 12.1108 10.9908C12.0347 11.0595 11.9895 11.087 11.9678 11.0974C11.9634 11.0996 11.9603 11.1008 11.9584 11.1016C11.9584 11.1016 11.9546 11.1001 11.9516 11.0987L11.9488 11.0974C11.9272 11.087 11.8821 11.0595 11.8059 10.9908C11.6418 10.8426 11.4425 10.606 11.1181 10.2166L10.8622 9.90955C10.5748 9.56463 10.3157 9.25365 10.0737 9.03508C9.81041 8.79734 9.4787 8.58554 9.04164 8.58554C8.60461 8.58554 8.27293 8.79734 8.00961 9.03508C7.76759 9.25365 7.50849 9.56463 7.22109 9.90964L5.62085 11.8299C5.38883 12.1083 5.42644 12.5221 5.70488 12.7542C5.98331 12.9861 6.39712 12.9485 6.62915 12.6701L8.20143 10.7834C8.52587 10.394 8.72511 10.1574 8.88921 10.0092C8.96534 9.94053 9.01049 9.91305 9.03219 9.90264C9.03446 9.9015 9.03805 9.89993 9.03805 9.89993L9.04164 9.89844C9.04365 9.89923 9.0468 9.90045 9.05118 9.90264C9.07279 9.91305 9.11794 9.94053 9.19406 10.0092C9.35821 10.1574 9.55745 10.394 9.8819 10.7834L10.1378 11.0905C10.4252 11.4354 10.6843 11.7464 10.9263 11.9649C11.1896 12.2027 11.5213 12.4145 11.9584 12.4145C12.3954 12.4145 12.727 12.2027 12.9904 11.9649C13.2324 11.7464 13.4915 11.4354 13.7789 11.0905L15.3792 9.17009Z" fill="#5F6577"/>
</svg>
