<svg width="14" height="14" viewBox="0 0 14 14" fill="none" xmlns="http://www.w3.org/2000/svg">
<g clip-path="url(#clip0_812_1054)">
<path d="M14 7C14 6.66323 13.7 6.36525 13.2383 6.17772C12.8708 3.36 10.64 1.1295 7.82202 0.761651C7.63475 0.300037 7.33677 0 7 0C6.66323 0 6.36525 0.300037 6.17772 0.761651C3.36 1.1295 1.1295 3.36 0.761651 6.17772C0.300037 6.36499 0 6.66323 0 7C0 7.33677 0.300037 7.63475 0.761651 7.82202C1.1295 10.64 3.36 12.8708 6.17772 13.2383C6.36499 13.7 6.66323 14 7 14C7.33677 14 7.63475 13.7 7.82202 13.2383C10.64 12.8708 12.8708 10.64 13.2383 7.82202C13.7 7.63475 14 7.33677 14 7ZM7.95149 11.3921C7.79813 10.6999 7.43053 10.211 7 10.211C6.56947 10.211 6.20136 10.6991 6.04851 11.3921C4.33255 11.0204 2.97956 9.66771 2.60811 7.95149C3.3004 7.79813 3.78899 7.43053 3.78899 7C3.78899 6.56947 3.3004 6.20136 2.60811 6.04851C2.97956 4.33255 4.33255 2.97956 6.04851 2.60811C6.20136 3.3004 6.56947 3.78899 7 3.78899C7.43053 3.78899 7.79813 3.3004 7.95149 2.60811C9.66771 2.97956 11.0202 4.33255 11.3921 6.04851C10.6993 6.20136 10.211 6.56947 10.211 7C10.211 7.43053 10.6991 7.79813 11.3921 7.95149C11.0202 9.66771 9.66771 11.0202 7.95149 11.3921Z" fill="#FF6367"/>
</g>
<defs>
<clipPath id="clip0_812_1054">
<rect width="14" height="14" fill="white"/>
</clipPath>
</defs>
</svg>
