<svg width="16" height="16" viewBox="0 0 16 16" fill="none" xmlns="http://www.w3.org/2000/svg">
<path d="M11.8363 9.33327C12.6647 9.33327 13.3363 10.0048 13.3363 10.8333V11.4367C13.3363 12.1658 13.018 12.8586 12.4647 13.3335C11.4211 14.2295 9.92756 14.6674 8.0009 14.6674C6.07456 14.6674 4.58202 14.2296 3.54011 13.3338C2.98769 12.8589 2.66992 12.1667 2.66992 11.4381V10.8333C2.66992 10.0048 3.34149 9.33327 4.16992 9.33327H11.8363ZM7.93327 1.33821L8.00112 1.33365C8.25425 1.33365 8.46344 1.52175 8.49655 1.7658L8.50112 1.83365L8.50059 2.33298L10.8342 2.33332C11.6627 2.33332 12.3342 3.00489 12.3342 3.83332V6.83638C12.3342 7.66481 11.6627 8.33638 10.8342 8.33638H5.16756C4.33913 8.33638 3.66756 7.66481 3.66756 6.83638V3.83332C3.66756 3.00489 4.33913 2.33332 5.16756 2.33332L7.50059 2.33298L7.50112 1.83365C7.50112 1.58052 7.68922 1.37132 7.93327 1.33821ZM6.50042 4.33332C6.04045 4.33332 5.66756 4.7062 5.66756 5.16618C5.66756 5.62615 6.04045 5.99904 6.50042 5.99904C6.9604 5.99904 7.33328 5.62615 7.33328 5.16618C7.33328 4.7062 6.9604 4.33332 6.50042 4.33332ZM9.49558 4.33332C9.0356 4.33332 8.66272 4.7062 8.66272 5.16618C8.66272 5.62615 9.0356 5.99904 9.49558 5.99904C9.95555 5.99904 10.3284 5.62615 10.3284 5.16618C10.3284 4.7062 9.95555 4.33332 9.49558 4.33332Z" fill="#F9DBFF"/>
</svg>
