<svg width="14" height="14" viewBox="0 0 14 14" fill="none" xmlns="http://www.w3.org/2000/svg">
<path d="M9.09536 1.02081C7.36286 1.02081 5.95703 2.42665 5.95703 4.15915C5.95703 5.89165 7.36286 7.29748 9.09536 7.29748C10.8279 7.29748 12.2337 5.89165 12.2337 4.15915C12.2337 2.42665 10.8279 1.02081 9.09536 1.02081Z" fill="#5F6577"/>
<path d="M3.71008 7.60156C2.64258 7.60156 1.76758 8.47079 1.76758 9.54412C1.76758 10.6175 2.63674 11.4866 3.71008 11.4866C4.77758 11.4866 5.65258 10.6175 5.65258 9.54412C5.65258 8.47079 4.77758 7.60156 3.71008 7.60156Z" fill="#5F6577"/>
<path d="M9.69581 9.69562C8.79164 9.69562 8.05664 10.4306 8.05664 11.3348C8.05664 12.239 8.79164 12.974 9.69581 12.974C10.6 12.974 11.335 12.239 11.335 11.3348C11.335 10.4306 10.6 9.69562 9.69581 9.69562Z" fill="#5F6577"/>
</svg>
