<svg width="14" height="15" viewBox="0 0 14 15" fill="none" xmlns="http://www.w3.org/2000/svg">
<path d="M11.839 6.2143L7.46403 10.5893C7.40306 10.6505 7.33062 10.699 7.25085 10.7321C7.17108 10.7653 7.08556 10.7823 6.99919 10.7823C6.91281 10.7823 6.82729 10.7653 6.74752 10.7321C6.66775 10.699 6.59531 10.6505 6.53434 10.5893L2.15934 6.2143C2.03606 6.09102 1.9668 5.92381 1.9668 5.74946C1.9668 5.57511 2.03606 5.4079 2.15934 5.28461C2.28263 5.16133 2.44984 5.09207 2.62419 5.09207C2.79854 5.09207 2.96574 5.16133 3.08903 5.28461L6.99973 9.19532L10.9104 5.28407C11.0337 5.16078 11.2009 5.09152 11.3753 5.09152C11.5496 5.09152 11.7168 5.16078 11.8401 5.28407C11.9634 5.40735 12.0327 5.57456 12.0327 5.74891C12.0327 5.92326 11.9634 6.09047 11.8401 6.21375L11.839 6.2143Z" fill="white"/>
</svg>
