<svg width="13" height="13" viewBox="0 0 13 13" fill="none" xmlns="http://www.w3.org/2000/svg">
<path d="M4.87565 1.02917C3.45648 1.02917 2.30273 2.12524 2.30273 3.47345C2.30273 4.79592 3.39148 5.86626 4.81065 5.91257C4.85398 5.90742 4.89732 5.90742 4.92982 5.91257C4.94065 5.91257 4.94607 5.91257 4.9569 5.91257C4.96232 5.91257 4.96232 5.91257 4.96773 5.91257C6.3544 5.86626 7.44315 4.79592 7.44857 3.47345C7.44857 2.12524 6.29482 1.02917 4.87565 1.02917Z" fill="#FFEC9F"/>
<path d="M7.62748 7.28132C6.11623 6.3242 3.65167 6.3242 2.12958 7.28132C1.44167 7.71872 1.0625 8.31049 1.0625 8.94342C1.0625 9.57636 1.44167 10.163 2.12417 10.5952C2.8825 11.0789 3.87917 11.3208 4.87583 11.3208C5.87248 11.3208 6.86914 11.0789 7.62748 10.5952C8.30998 10.1578 8.68914 9.57122 8.68914 8.93313C8.68373 8.30019 8.30998 7.71357 7.62748 7.28132Z" fill="#FFEC9F"/>
<path d="M10.8276 3.77708C10.9142 4.77537 10.1667 5.65016 9.13216 5.76851C9.12674 5.76851 9.12674 5.76851 9.12133 5.76851H9.10508C9.07258 5.76851 9.04008 5.76851 9.013 5.77881C8.48758 5.80454 8.00549 5.64501 7.64258 5.3517C8.20049 4.87829 8.52008 4.16816 8.45508 3.39629C8.41716 2.97947 8.2655 2.59868 8.038 2.27449C8.24383 2.17672 8.48216 2.11497 8.72591 2.09439C9.78758 2.00691 10.7355 2.7582 10.8276 3.77708Z" fill="#FFEC9F"/>
<path d="M11.9115 8.53686C11.8681 9.036 11.5323 9.46825 10.969 9.76157C10.4273 10.0446 9.74479 10.1784 9.06771 10.1629C9.45771 9.82846 9.68521 9.41165 9.72854 8.96911C9.78271 8.33102 9.46312 7.71867 8.82396 7.22982C8.46104 6.95709 8.03854 6.74096 7.57812 6.58144C8.77521 6.25211 10.281 6.47338 11.2073 7.1835C11.7056 7.56429 11.9602 8.04286 11.9115 8.53686Z" fill="#FFEC9F"/>
</svg>
