<svg width="16" height="16" viewBox="0 0 16 16" fill="none" xmlns="http://www.w3.org/2000/svg">
<path d="M15.9263 3.38196C15.0512 3.71024 14.2853 3.60074 13.5199 4.58515C12.7541 3.60074 11.9887 3.71024 11.1136 3.38196C10.6216 6.0069 12.7541 6.66324 12.7541 6.66324L12.0089 7.99439C11.7148 8.35683 11.2863 8.5844 10.8212 8.62486C10.3562 8.66533 9.89441 8.51515 9.54228 8.20936L7.69622 6.42964C6.65156 5.52233 5.31456 5.02271 3.93084 5.02271H2.83584C1.56769 5.02271 0 6.13665 0 8.01011V10.2382C0 11.5547 0.861187 12.618 2.53184 12.618H7.89909H10.4179C11.5885 12.618 12.6422 11.907 13.0802 10.8215L14.2854 6.66324C14.2854 6.66324 16.4183 6.0069 15.9263 3.38196Z" fill="#A5E8FF"/>
</svg>
