<svg width="13" height="12" viewBox="0 0 13 12" fill="none" xmlns="http://www.w3.org/2000/svg">
<path d="M4.73633 1C3.35738 1 2.23633 2.065 2.23633 3.375C2.23633 4.66 3.29422 5.7 4.67317 5.745C4.71528 5.74 4.75738 5.74 4.78896 5.745C4.79949 5.745 4.80475 5.745 4.81528 5.745C4.82054 5.745 4.82054 5.745 4.8258 5.745C6.17317 5.7 7.23106 4.66 7.23633 3.375C7.23633 2.065 6.11528 1 4.73633 1Z" fill="#CEEBFF"/>
<path d="M7.41018 7.07494C5.94175 6.14494 3.54704 6.14494 2.06809 7.07494C1.39967 7.49994 1.03125 8.07494 1.03125 8.68994C1.03125 9.30494 1.39967 9.87494 2.06283 10.2949C2.79967 10.7649 3.76809 10.9999 4.73651 10.9999C5.70491 10.9999 6.67333 10.7649 7.41018 10.2949C8.07333 9.86994 8.44175 9.29994 8.44175 8.67994C8.43649 8.06494 8.07333 7.49494 7.41018 7.07494Z" fill="#CEEBFF"/>
<path d="M10.5205 3.67005C10.6047 4.64005 9.87841 5.49005 8.87315 5.60505C8.86789 5.60505 8.86789 5.60505 8.86262 5.60505H8.84683C8.81526 5.60505 8.78368 5.60505 8.75736 5.61505C8.24683 5.64005 7.77841 5.48505 7.42578 5.20005C7.96789 4.74005 8.27841 4.05005 8.21525 3.30005C8.17841 2.89505 8.03104 2.52505 7.80999 2.21005C8.00999 2.11505 8.24157 2.05505 8.47841 2.03505C9.50999 1.95005 10.431 2.68005 10.5205 3.67005Z" fill="#CEEBFF"/>
<path d="M11.5738 8.29495C11.5317 8.77995 11.2054 9.19995 10.658 9.48495C10.1317 9.75995 9.46854 9.88995 8.81065 9.87495C9.1896 9.54995 9.41065 9.14495 9.45275 8.71495C9.50539 8.09495 9.19486 7.49995 8.57381 7.02495C8.22118 6.75995 7.81065 6.54995 7.36328 6.39495C8.52644 6.07495 9.9896 6.28995 10.8896 6.97995C11.3738 7.34995 11.6212 7.81495 11.5738 8.29495Z" fill="#CEEBFF"/>
</svg>
