<svg width="17" height="16" viewBox="0 0 17 16" fill="none" xmlns="http://www.w3.org/2000/svg">
<path d="M6.31576 1.33334C4.47716 1.33334 2.98242 2.75334 2.98242 4.50001C2.98242 6.21334 4.39295 7.60001 6.23154 7.66001C6.28769 7.65334 6.34383 7.65334 6.38593 7.66001C6.39997 7.66001 6.40698 7.66001 6.42102 7.66001C6.42804 7.66001 6.42804 7.66001 6.43505 7.66001C8.23154 7.60001 9.64207 6.21334 9.64909 4.50001C9.64909 2.75334 8.15435 1.33334 6.31576 1.33334Z" fill="#BBB8FF"/>
<path d="M9.88219 9.43327C7.92429 8.19327 4.73134 8.19327 2.75941 9.43327C1.86818 9.99993 1.37695 10.7666 1.37695 11.5866C1.37695 12.4066 1.86818 13.1666 2.75239 13.7266C3.73485 14.3533 5.02608 14.6666 6.3173 14.6666C7.6085 14.6666 8.89973 14.3533 9.88219 13.7266C10.7664 13.1599 11.2576 12.3999 11.2576 11.5733C11.2506 10.7533 10.7664 9.99327 9.88219 9.43327Z" fill="#BBB8FF"/>
<path d="M14.0267 4.89341C14.139 6.18674 13.1706 7.32008 11.8302 7.47341C11.8232 7.47341 11.8232 7.47341 11.8162 7.47341H11.7951C11.753 7.47341 11.7109 7.47341 11.6758 7.48674C10.9951 7.52008 10.3706 7.31341 9.90039 6.93341C10.6232 6.32008 11.0372 5.40008 10.953 4.40008C10.9039 3.86008 10.7074 3.36674 10.4127 2.94674C10.6793 2.82008 10.9881 2.74008 11.3039 2.71341C12.6793 2.60008 13.9074 3.57341 14.0267 4.89341Z" fill="#BBB8FF"/>
<path d="M15.4324 11.0599C15.3763 11.7066 14.9412 12.2666 14.2113 12.6466C13.5096 13.0133 12.6254 13.1866 11.7482 13.1666C12.2534 12.7333 12.5482 12.1933 12.6043 11.6199C12.6745 10.7933 12.2605 9.99994 11.4324 9.36661C10.9622 9.01327 10.4149 8.73327 9.81836 8.52661C11.3692 8.09994 13.3201 8.38661 14.5201 9.30661C15.1657 9.79994 15.4956 10.4199 15.4324 11.0599Z" fill="#BBB8FF"/>
</svg>
