<svg width="16" height="16" viewBox="0 0 16 16" fill="none" xmlns="http://www.w3.org/2000/svg">
<path fill-rule="evenodd" clip-rule="evenodd" d="M2.78105 2.11439C2 2.89544 2 4.15252 2 6.66668V9.33334C2 11.8475 2 13.1046 2.78105 13.8856C3.5621 14.6667 4.81917 14.6667 7.33333 14.6667H8.66667C11.1808 14.6667 12.4379 14.6667 13.2189 13.8856C14 13.1046 14 11.8475 14 9.33334V6.66668C14 4.15252 14 2.89544 13.2189 2.11439C12.4379 1.33334 11.1808 1.33334 8.66667 1.33334H7.33333C4.81917 1.33334 3.5621 1.33334 2.78105 2.11439ZM5.33333 6.16668C5.05719 6.16668 4.83333 6.39054 4.83333 6.66668C4.83333 6.94281 5.05719 7.16668 5.33333 7.16668H10.6667C10.9428 7.16668 11.1667 6.94281 11.1667 6.66668C11.1667 6.39054 10.9428 6.16668 10.6667 6.16668H5.33333ZM5.33333 8.83334C5.05719 8.83334 4.83333 9.05721 4.83333 9.33334C4.83333 9.60948 5.05719 9.83334 5.33333 9.83334H8.66667C8.9428 9.83334 9.16667 9.60948 9.16667 9.33334C9.16667 9.05721 8.9428 8.83334 8.66667 8.83334H5.33333Z" fill="#B5FFC9"/>
</svg>
