<svg width="12" height="13" viewBox="0 0 12 13" fill="none" xmlns="http://www.w3.org/2000/svg">
<path d="M3.5 2.70831C2.11929 2.70831 1 3.92088 1 5.41665C1 6.52723 1.61705 7.4817 2.5 7.89965V9.34373H9.5V7.89965C10.3829 7.4817 11 6.52723 11 5.41665C11 3.92088 9.8807 2.70831 8.5 2.70831C8.37475 2.70831 8.25165 2.71829 8.1313 2.73756C7.8302 1.7756 6.9897 1.08331 6 1.08331C5.0103 1.08331 4.16981 1.7756 3.86868 2.73756C3.74836 2.71829 3.62526 2.70831 3.5 2.70831Z" fill="#A2FFCD"/>
<path d="M9.49831 10.1562H2.5C2.50509 10.9129 2.54087 11.3273 2.79205 11.5994C3.08494 11.9167 3.55634 11.9167 4.49916 11.9167H7.49916C8.44196 11.9167 8.91335 11.9167 9.20625 11.5994C9.45746 11.3273 9.49321 10.9129 9.49831 10.1562Z" fill="#A2FFCD"/>
</svg>
