<svg width="17" height="17" viewBox="0 0 17 17" fill="none" xmlns="http://www.w3.org/2000/svg">
<path d="M14.1673 2.83331L8.50065 8.49998M14.1673 2.83331V6.02081M14.1673 2.83331H10.9798M13.459 8.85415V11.9C13.459 12.6934 13.459 13.0901 13.3046 13.3931C13.1688 13.6597 12.952 13.8764 12.6855 14.0122C12.3825 14.1666 11.9857 14.1666 11.1923 14.1666H5.10065C4.30725 14.1666 3.91054 14.1666 3.6075 14.0122C3.34093 13.8764 3.12421 13.6597 2.98839 13.3931C2.83398 13.0901 2.83398 12.6934 2.83398 11.9V5.80831C2.83398 5.01491 2.83398 4.6182 2.98839 4.31516C3.12421 4.04859 3.34093 3.83187 3.6075 3.69606C3.91054 3.54165 4.30724 3.54165 5.10065 3.54165H8.14648" stroke="white" stroke-width="1.5" stroke-linecap="round" stroke-linejoin="round"/>
</svg>
