<svg width="9" height="9" viewBox="0 0 9 9" fill="none" xmlns="http://www.w3.org/2000/svg">
<path d="M7.5 1.5L4.5 4.5M7.5 1.5V3.1875M7.5 1.5H5.8125M7.125 4.6875V6.3C7.125 6.72004 7.125 6.93008 7.04325 7.0905C6.97136 7.23161 6.85661 7.34636 6.7155 7.41825C6.55508 7.5 6.34504 7.5 5.925 7.5H2.7C2.27996 7.5 2.06994 7.5 1.90951 7.41825C1.76838 7.34636 1.65365 7.23161 1.58175 7.0905C1.5 6.93008 1.5 6.72004 1.5 6.3V3.075C1.5 2.65496 1.5 2.44494 1.58175 2.28451C1.65365 2.14338 1.76838 2.02865 1.90951 1.95675C2.06994 1.875 2.27996 1.875 2.7 1.875H4.3125" stroke="#FFA861" stroke-width="0.9" stroke-linecap="round" stroke-linejoin="round"/>
</svg>
