<svg width="13" height="16" viewBox="0 0 13 16" fill="none" xmlns="http://www.w3.org/2000/svg">
<path d="M1.08398 10.6667C1.08398 8.78107 1.08398 7.83827 1.55994 7.25247C2.03589 6.66667 2.80192 6.66667 4.33398 6.66667H8.66732C10.1994 6.66667 10.9654 6.66667 11.4414 7.25247C11.9173 7.83827 11.9173 8.78107 11.9173 10.6667C11.9173 12.5523 11.9173 13.4951 11.4414 14.0809C10.9654 14.6667 10.1994 14.6667 8.66732 14.6667H4.33398C2.80192 14.6667 2.03589 14.6667 1.55994 14.0809C1.08398 13.4951 1.08398 12.5523 1.08398 10.6667Z" fill="#5F6577"/>
<path d="M3.8233 5.73325C3.8233 4.41599 5.0216 3.34813 6.49977 3.34813C7.97795 3.34813 9.17624 4.41599 9.17624 5.73325V6.6435C9.4655 6.64591 9.71842 6.65186 9.94095 6.66667V5.73325C9.94095 4.03963 8.40027 2.66667 6.49977 2.66667C4.59926 2.66667 3.05859 4.03963 3.05859 5.73325V6.66667C3.28113 6.65186 3.53406 6.64591 3.8233 6.6435V5.73325Z" fill="#5F6577"/>
</svg>
