<svg width="15" height="15" viewBox="0 0 15 15" fill="none" xmlns="http://www.w3.org/2000/svg">
<g clip-path="url(#clip0_812_2145)">
<path d="M7.5 3.125C9.11981 3.125 10.6163 3.41556 11.7313 3.9111C12.288 4.15852 12.7772 4.46933 13.1357 4.84602C13.4671 5.19428 13.7071 5.62287 13.7448 6.1144L13.75 6.25V8.75C13.75 9.29856 13.4972 9.77406 13.1357 10.154C12.7772 10.5307 12.288 10.8415 11.7313 11.0889C10.6163 11.5844 9.11981 11.875 7.5 11.875C5.88018 11.875 4.38366 11.5844 3.26869 11.0889C2.71199 10.8415 2.22278 10.5307 1.86429 10.154C1.53287 9.80572 1.29288 9.37715 1.25518 8.88561L1.25 8.75V6.25C1.25 5.70146 1.50274 5.22594 1.86429 4.84602C2.22278 4.46933 2.71199 4.15852 3.26869 3.9111C4.38366 3.41556 5.88018 3.125 7.5 3.125ZM12.5 8.17506C12.2654 8.32869 12.0066 8.46656 11.7313 8.58887C10.6163 9.08444 9.11981 9.375 7.5 9.375C5.88018 9.375 4.38366 9.08444 3.26869 8.58887C2.99341 8.46656 2.73463 8.32869 2.5 8.17506V8.75C2.5 8.89181 2.56206 9.074 2.76979 9.29225C2.98058 9.51375 3.31514 9.74163 3.77636 9.94663C4.69724 10.3559 6.01321 10.625 7.5 10.625C8.98681 10.625 10.3027 10.3559 11.2236 9.94663C11.6849 9.74163 12.0194 9.51375 12.2302 9.29225C12.4379 9.074 12.5 8.89181 12.5 8.75V8.17506Z" fill="#FFEC9F"/>
</g>
<defs>
<clipPath id="clip0_812_2145">
<rect width="15" height="15" fill="white"/>
</clipPath>
</defs>
</svg>
