<svg width="9" height="9" viewBox="0 0 9 9" fill="none" xmlns="http://www.w3.org/2000/svg">
<path d="M6.48511 4.79846L3.67261 7.61096C3.59335 7.69022 3.48586 7.73474 3.37378 7.73474C3.2617 7.73474 3.1542 7.69022 3.07495 7.61096C2.9957 7.53171 2.95117 7.42422 2.95117 7.31213C2.95117 7.20005 2.9957 7.09256 3.07495 7.01331L5.58897 4.49998L3.07565 1.98596C3.03641 1.94672 3.00528 1.90013 2.98404 1.84886C2.96281 1.79758 2.95187 1.74263 2.95187 1.68713C2.95187 1.63164 2.96281 1.57668 2.98404 1.52541C3.00528 1.47414 3.03641 1.42755 3.07565 1.38831C3.1149 1.34906 3.16148 1.31793 3.21276 1.2967C3.26403 1.27546 3.31898 1.26453 3.37448 1.26453C3.42998 1.26453 3.48493 1.27546 3.53621 1.2967C3.58748 1.31793 3.63407 1.34906 3.67331 1.38831L6.48581 4.20081C6.52509 4.24005 6.55625 4.28665 6.57748 4.33796C6.59871 4.38926 6.60961 4.44425 6.60954 4.49978C6.60948 4.5553 6.59845 4.61027 6.5771 4.66152C6.55574 4.71278 6.52448 4.75931 6.48511 4.79846Z" fill="#979DAD"/>
</svg>
