<svg width="13" height="12" viewBox="0 0 13 12" fill="none" xmlns="http://www.w3.org/2000/svg">
<path d="M9.49906 3.58C9.46906 3.575 9.43406 3.575 9.40406 3.58C8.71406 3.555 8.16406 2.99 8.16406 2.29C8.16406 1.575 8.73906 1 9.45406 1C10.1691 1 10.7441 1.58 10.7441 2.29C10.7391 2.99 10.1891 3.555 9.49906 3.58Z" stroke="#829FFF" stroke-width="0.8" stroke-linecap="round" stroke-linejoin="round"/>
<path d="M8.9857 7.22C9.6707 7.335 10.4257 7.215 10.9557 6.86C11.6607 6.39 11.6607 5.62 10.9557 5.15C10.4207 4.79502 9.6557 4.67502 8.9707 4.79502" stroke="#829FFF" stroke-width="0.8" stroke-linecap="round" stroke-linejoin="round"/>
<path d="M3.48523 3.58C3.51523 3.575 3.55023 3.575 3.58023 3.58C4.27023 3.555 4.82023 2.99 4.82023 2.29C4.82023 1.575 4.24523 1 3.53023 1C2.81523 1 2.24023 1.58 2.24023 2.29C2.24523 2.99 2.79523 3.555 3.48523 3.58Z" stroke="#829FFF" stroke-width="0.8" stroke-linecap="round" stroke-linejoin="round"/>
<path d="M4.0007 7.22C3.3157 7.335 2.5607 7.215 2.0307 6.86C1.3257 6.39 1.3257 5.62 2.0307 5.15C2.5657 4.79502 3.3307 4.67502 4.0157 4.79502" stroke="#829FFF" stroke-width="0.8" stroke-linecap="round" stroke-linejoin="round"/>
<path d="M6.49908 7.315C6.46908 7.31 6.43408 7.31 6.40408 7.315C5.71408 7.29 5.16406 6.725 5.16406 6.025C5.16406 5.31 5.73908 4.73499 6.45408 4.73499C7.16908 4.73499 7.74408 5.315 7.74408 6.025C7.73908 6.725 7.18908 7.295 6.49908 7.315Z" stroke="#829FFF" stroke-width="0.8" stroke-linecap="round" stroke-linejoin="round"/>
<path d="M5.04437 8.89005C4.33938 9.36005 4.33938 10.1301 5.04437 10.6001C5.84439 11.1351 7.15439 11.1351 7.95439 10.6001C8.65939 10.1301 8.65939 9.36005 7.95439 8.89005C7.15939 8.36005 5.84439 8.36005 5.04437 8.89005Z" stroke="#829FFF" stroke-width="0.8" stroke-linecap="round" stroke-linejoin="round"/>
</svg>
