<svg width="13" height="13" viewBox="0 0 13 13" fill="none" xmlns="http://www.w3.org/2000/svg">
<path d="M4.89423 3.22998L3.51669 4.60339C3.26348 4.85582 3.03121 5.08739 2.84778 5.29672C2.72999 5.43113 2.61227 5.5783 2.51256 5.74085L2.49914 5.72747C2.47366 5.70207 2.46091 5.68934 2.44811 5.67694C2.20868 5.44462 1.92704 5.25992 1.61826 5.1327C1.60176 5.1259 1.58502 5.11926 1.55152 5.10599L1.34642 5.02472C1.06856 4.91462 0.994513 4.55693 1.20594 4.34614C1.81272 3.7412 2.54124 3.01488 2.89283 2.869C3.2029 2.74035 3.53786 2.69754 3.86092 2.74528C4.15692 2.78903 4.43693 2.94108 4.89423 3.22998Z" fill="#4B5060"/>
<path d="M7.24609 10.4613C7.35708 10.5739 7.4308 10.6535 7.49748 10.7385C7.58539 10.8507 7.66404 10.9699 7.73256 11.0949C7.8097 11.2355 7.86961 11.3858 7.98942 11.6863C8.08692 11.931 8.41095 11.9956 8.59912 11.808L8.64462 11.7626C9.2514 11.1576 9.97989 10.4313 10.1262 10.0808C10.2553 9.77162 10.2982 9.43768 10.2503 9.1156C10.2064 8.8205 10.054 8.54138 9.76425 8.08557L8.38213 9.46357C8.12316 9.72173 7.88575 9.95849 7.67103 10.1439C7.54233 10.2551 7.40155 10.3662 7.24609 10.4613Z" fill="#4B5060"/>
<path fill-rule="evenodd" clip-rule="evenodd" d="M7.82623 8.87086L10.9932 5.71332C11.4494 5.2586 11.6774 5.03124 11.7975 4.7421C11.9177 4.45298 11.9177 4.13144 11.9177 3.48835V3.18112C11.9177 2.19224 11.9177 1.69779 11.6095 1.39058C11.3014 1.08337 10.8054 1.08337 9.8136 1.08337H9.50545C8.86043 1.08337 8.53792 1.08337 8.24792 1.20314C7.95791 1.3229 7.72987 1.55026 7.27378 2.005L4.10672 5.16255C3.57376 5.69388 3.2433 6.02337 3.11533 6.3416C3.0749 6.44214 3.05469 6.54159 3.05469 6.64586C3.05469 7.08033 3.40536 7.42997 4.10672 8.12921L4.20098 8.22319L5.30518 7.10254C5.46267 6.94269 5.71985 6.94079 5.8797 7.09826C6.03949 7.25572 6.04138 7.51296 5.88392 7.6728L4.77638 8.79687L4.85062 8.87086C5.55199 9.57015 5.90266 9.91974 6.33843 9.91974C6.43469 9.91974 6.52682 9.90268 6.6195 9.86856C6.94629 9.7482 7.27985 9.41562 7.82623 8.87086ZM9.31408 5.16277C8.90323 5.57238 8.23714 5.57238 7.82628 5.16277C7.41543 4.75317 7.41543 4.08906 7.82628 3.67944C8.23714 3.26983 8.90323 3.26983 9.31408 3.67944C9.72493 4.08906 9.72493 4.75317 9.31408 5.16277Z" fill="#4B5060"/>
</svg>
