<svg width="19" height="19" viewBox="0 0 19 19" fill="none" xmlns="http://www.w3.org/2000/svg">
<path d="M16.9219 9.5C16.9219 9.73621 16.828 9.96274 16.661 10.1298C16.494 10.2968 16.2675 10.3906 16.0312 10.3906H10.3906V16.0312C10.3906 16.2675 10.2968 16.494 10.1298 16.661C9.96274 16.828 9.73621 16.9219 9.5 16.9219C9.26379 16.9219 9.03726 16.828 8.87023 16.661C8.70321 16.494 8.60938 16.2675 8.60938 16.0312V10.3906H2.96875C2.73254 10.3906 2.50601 10.2968 2.33898 10.1298C2.17196 9.96274 2.07812 9.73621 2.07812 9.5C2.07812 9.26379 2.17196 9.03726 2.33898 8.87023C2.50601 8.70321 2.73254 8.60938 2.96875 8.60938H8.60938V2.96875C8.60938 2.73254 8.70321 2.50601 8.87023 2.33898C9.03726 2.17196 9.26379 2.07813 9.5 2.07812C9.73621 2.07812 9.96274 2.17196 10.1298 2.33898C10.2968 2.50601 10.3906 2.73254 10.3906 2.96875V8.60938H16.0312C16.2675 8.60938 16.494 8.70321 16.661 8.87023C16.828 9.03726 16.9219 9.26379 16.9219 9.5Z" fill="#829FFF"/>
</svg>
