<svg width="12" height="11" viewBox="0 0 12 11" fill="none" xmlns="http://www.w3.org/2000/svg">
<path fill-rule="evenodd" clip-rule="evenodd" d="M10.9191 5.09951L10.8045 6.21569C10.6156 8.0548 10.5212 8.97435 9.92995 9.5288C9.33865 10.0833 8.4524 10.0833 6.67995 10.0833H5.32005C3.54758 10.0833 2.66135 10.0833 2.07004 9.5288C1.47874 8.97435 1.38432 8.0548 1.1955 6.21569L1.0809 5.09951C0.990899 4.22291 0.945899 3.7846 1.10949 3.60341C1.19799 3.5054 1.31833 3.44534 1.44699 3.43498C1.68484 3.41584 1.98354 3.72754 2.58093 4.35095C2.88988 4.67336 3.04436 4.83455 3.21668 4.85953C3.31217 4.87333 3.40946 4.85912 3.49763 4.81846C3.65675 4.74504 3.76285 4.54576 3.97503 4.1472L5.09345 2.04635C5.4944 1.2932 5.6949 0.916626 6 0.916626C6.3051 0.916626 6.5056 1.2932 6.90655 2.04635L8.02495 4.14719C8.23715 4.54576 8.34325 4.74504 8.50235 4.81846C8.59055 4.85912 8.68785 4.87333 8.7833 4.85953C8.95565 4.83455 9.1101 4.67336 9.41905 4.35095C10.0164 3.72754 10.3151 3.41584 10.553 3.43498C10.6816 3.44534 10.802 3.5054 10.8905 3.60341C11.0541 3.7846 11.0091 4.22291 10.9191 5.09951ZM6.4762 5.82033L6.42705 5.73953C6.23705 5.42708 6.14205 5.27088 6 5.27088C5.85795 5.27088 5.76295 5.42708 5.57295 5.73953L5.5238 5.82033C5.46985 5.90911 5.44285 5.95353 5.40075 5.98281C5.35865 6.0121 5.30625 6.02296 5.2014 6.04473L5.10595 6.06453C4.73698 6.14103 4.5525 6.1793 4.50861 6.30869C4.46472 6.43808 4.59048 6.57287 4.84201 6.84246L4.90709 6.91222C4.97856 6.98886 5.0143 7.02717 5.0304 7.07456C5.04645 7.12196 5.04105 7.17306 5.03025 7.27527L5.0204 7.36836C4.98238 7.72806 4.96337 7.90795 5.07825 7.98788C5.1932 8.06786 5.3659 7.99494 5.71135 7.84915L5.8007 7.81143C5.8989 7.76999 5.94795 7.74928 6 7.74928C6.05205 7.74928 6.1011 7.76999 6.1993 7.81143L6.28865 7.84915C6.6341 7.99494 6.8068 8.06786 6.92175 7.98788C7.03665 7.90795 7.0176 7.72806 6.9796 7.36836L6.96975 7.27527C6.95895 7.17306 6.95355 7.12196 6.9696 7.07456C6.9857 7.02717 7.02145 6.98886 7.0929 6.91222L7.158 6.84246C7.4095 6.57287 7.5353 6.43808 7.4914 6.30869C7.4475 6.1793 7.263 6.14103 6.89405 6.06453L6.7986 6.04473C6.69375 6.02296 6.64135 6.0121 6.59925 5.98281C6.55715 5.95353 6.53015 5.90911 6.4762 5.82033Z" fill="#FFDC5F"/>
</svg>
