<svg width="16" height="16" viewBox="0 0 16 16" fill="none" xmlns="http://www.w3.org/2000/svg">
<g clip-path="url(#clip0_812_2139)">
<path d="M15.5354 8.29487V15.875H2.43185V13.2307H6.6626V10.8216H10.5995V8.29487H15.5354ZM3.79316 1.27968C3.83097 0.675119 3.37278 0.160244 2.76822 0.127182C2.16366 0.0893692 1.64878 0.547557 1.61572 1.15212C1.58266 1.75668 2.04085 2.27156 2.64066 2.30462C3.24522 2.33768 3.76003 1.87949 3.79316 1.27968ZM5.95641 8.18037L8.09603 10.3342C8.34166 10.5845 8.74785 10.5892 8.99816 10.3389C9.10678 10.2303 9.16822 10.0933 9.18235 9.95162C9.20122 9.76743 9.13985 9.57849 8.99816 9.43681L7.04747 7.48137L7.09472 6.33837L7.32141 7.18856C7.41116 7.51443 7.74178 7.71756 8.07241 7.64674L10.434 7.14606C10.7127 7.08937 10.9111 6.85793 10.9394 6.58868C10.9488 6.52256 10.9442 6.45643 10.93 6.39031C10.8591 6.04549 10.519 5.82824 10.1742 5.89906L8.40772 6.27218L7.91647 4.45374C7.91172 4.43012 7.90228 4.41124 7.89285 4.38762C7.81728 4.13256 7.65666 3.91056 7.43941 3.76887L5.44153 2.60218C5.44153 2.60218 5.11566 2.41324 4.73778 2.26212C4.69997 2.24324 4.65747 2.22431 4.61028 2.21487C4.36466 2.12987 4.10491 2.06843 3.91597 2.09681C3.69872 2.12987 3.51922 2.21962 3.41528 2.30937L0.647409 5.24249C0.524596 5.37949 0.467909 5.49756 0.463221 5.64868C0.453784 5.89899 0.647409 6.12574 0.926096 6.14462C1.06778 6.15406 1.19535 6.10681 1.29453 6.02181L3.24997 3.95299L3.92066 4.32143L3.24997 5.34168C3.10828 5.56837 3.1791 5.86124 3.4011 6.00293C3.43416 6.02656 3.47197 6.04074 3.50972 6.05487C3.7081 6.11624 3.93485 6.04543 4.05291 5.86124L5.28097 3.86331L5.55022 4.03337L5.01178 4.93549L5.85722 5.38418L5.76747 7.70806C5.76272 7.88749 5.82885 8.05756 5.95641 8.18037Z" fill="#5F6577"/>
</g>
<defs>
<clipPath id="clip0_812_2139">
<rect width="16" height="16" fill="white"/>
</clipPath>
</defs>
</svg>
