<svg width="22" height="22" viewBox="0 0 22 22" fill="none" xmlns="http://www.w3.org/2000/svg">
<path fill-rule="evenodd" clip-rule="evenodd" d="M13.0889 1.97293C12.7495 1.83337 12.3191 1.83337 11.4583 1.83337C10.5976 1.83337 10.1672 1.83337 9.82776 1.97293C9.37511 2.159 9.0155 2.51591 8.82801 2.96512C8.74242 3.17019 8.70893 3.40867 8.69582 3.75653C8.67656 4.26775 8.41239 4.74094 7.96599 4.99673C7.51958 5.2525 6.97458 5.24295 6.51886 5.0039C6.20875 4.84123 5.9839 4.75078 5.76216 4.72181C5.27641 4.65834 4.78516 4.78897 4.39648 5.08497C4.10496 5.30697 3.88977 5.67687 3.45941 6.41664C3.02904 7.15643 2.81386 7.52631 2.7659 7.88788C2.70195 8.36994 2.83358 8.85748 3.13184 9.24325C3.26797 9.41934 3.45929 9.56729 3.75622 9.75246C4.19275 10.0247 4.47362 10.4884 4.4736 11C4.47357 11.5116 4.1927 11.9753 3.75622 12.2474C3.45924 12.4327 3.26789 12.5807 3.13174 12.7568C2.83349 13.1426 2.70186 13.63 2.76581 14.1121C2.81377 14.4737 3.02896 14.8436 3.45931 15.5834C3.88968 16.3231 4.10487 16.6931 4.39639 16.915C4.78507 17.211 5.27632 17.3416 5.76206 17.2782C5.9838 17.2492 6.20863 17.1588 6.51872 16.9961C6.97447 16.7571 7.51951 16.7475 7.96594 17.0033C8.41238 17.2591 8.67655 17.7323 8.69582 18.2436C8.70893 18.5914 8.74242 18.8299 8.82801 19.035C9.0155 19.4842 9.37511 19.8411 9.82776 20.0272C10.1672 20.1667 10.5976 20.1667 11.4583 20.1667C12.3191 20.1667 12.7495 20.1667 13.0889 20.0272C13.5415 19.8411 13.9012 19.4842 14.0886 19.035C14.1742 18.8299 14.2078 18.5914 14.2209 18.2435C14.2401 17.7323 14.5042 17.2591 14.9506 17.0033C15.3971 16.7474 15.9421 16.7571 16.3979 16.9961C16.708 17.1588 16.9328 17.2491 17.1545 17.2781C17.6402 17.3416 18.1315 17.211 18.5201 16.915C18.8117 16.693 19.0269 16.3231 19.4573 15.5833C19.8876 14.8435 20.1028 14.4737 20.1508 14.1121C20.2147 13.63 20.0831 13.1425 19.7849 12.7567C19.6487 12.5806 19.4573 12.4326 19.1603 12.2474C18.7239 11.9753 18.4431 11.5115 18.4431 10.9999C18.4431 10.4884 18.7239 10.0248 19.1603 9.75264C19.4574 9.56738 19.6487 9.41943 19.785 9.24325C20.0832 8.85754 20.2148 8.37001 20.1509 7.88793C20.1029 7.52638 19.8877 7.15649 19.4573 6.41671C19.027 5.67693 18.8118 5.30704 18.5202 5.08504C18.1316 4.78904 17.6403 4.6584 17.1546 4.72187C16.9328 4.75084 16.708 4.84129 16.398 5.00394C15.9422 5.243 15.3972 5.25256 14.9507 4.99675C14.5043 4.74096 14.2401 4.26773 14.2208 3.75649C14.2077 3.40865 14.1742 3.17018 14.0886 2.96512C13.9012 2.51591 13.5415 2.159 13.0889 1.97293ZM11.4583 13.75C12.9887 13.75 14.2292 12.5189 14.2292 11C14.2292 9.48122 12.9887 8.25004 11.4583 8.25004C9.92796 8.25004 8.68739 9.48122 8.68739 11C8.68739 12.5189 9.92796 13.75 11.4583 13.75Z" fill="#5F6577"/>
</svg>
