<svg width="16" height="16" viewBox="0 0 16 16" fill="none" xmlns="http://www.w3.org/2000/svg">
<path d="M7.99906 4.31999C8.26415 4.31999 8.47906 4.10508 8.47906 3.83999C8.47906 3.57489 8.26415 3.35999 7.99906 3.35999V4.31999ZM12.9591 8.31999C12.9591 8.0549 12.7442 7.83999 12.4791 7.83999C12.214 7.83999 11.9991 8.0549 11.9991 8.31999H12.9591ZM12.4791 4.31999C12.7442 4.31999 12.9591 4.10508 12.9591 3.83999C12.9591 3.57489 12.7442 3.35999 12.4791 3.35999V4.31999ZM9.86274 3.35999C9.59765 3.35999 9.38274 3.57489 9.38274 3.83999C9.38274 4.10508 9.59765 4.31999 9.86274 4.31999V3.35999ZM12.9591 3.83999C12.9591 3.57489 12.7442 3.35999 12.4791 3.35999C12.214 3.35999 11.9991 3.57489 11.9991 3.83999H12.9591ZM11.9991 6.49023C11.9991 6.75531 12.214 6.97023 12.4791 6.97023C12.7442 6.97023 12.9591 6.75531 12.9591 6.49023H11.9991ZM12.8185 4.1794C13.0059 3.99195 13.0059 3.68802 12.8185 3.50057C12.631 3.31312 12.3271 3.31312 12.1397 3.50057L12.8185 4.1794ZM7.65967 7.98059C7.47221 8.16805 7.47221 8.47192 7.65967 8.65938C7.84713 8.84683 8.151 8.84683 8.33845 8.65938L7.65967 7.98059ZM7.99906 3.35999H6.07906V4.31999H7.99906V3.35999ZM6.07906 3.35999C4.40012 3.35999 3.03906 4.72104 3.03906 6.39999H3.99906C3.99906 5.25123 4.93031 4.31999 6.07906 4.31999V3.35999ZM3.03906 6.39999V10.24H3.99906V6.39999H3.03906ZM3.03906 10.24C3.03906 11.919 4.40012 13.28 6.07906 13.28V12.32C4.93031 12.32 3.99906 11.3887 3.99906 10.24H3.03906ZM6.07906 13.28H9.91906V12.32H6.07906V13.28ZM9.91906 13.28C11.598 13.28 12.9591 11.919 12.9591 10.24H11.9991C11.9991 11.3887 11.0678 12.32 9.91906 12.32V13.28ZM12.9591 10.24V8.31999H11.9991V10.24H12.9591ZM12.4791 3.35999H9.86274V4.31999H12.4791V3.35999ZM11.9991 3.83999V6.49023H12.9591V3.83999H11.9991ZM12.1397 3.50057L7.65967 7.98059L8.33845 8.65938L12.8185 4.1794L12.1397 3.50057Z" fill="#5F6577"/>
</svg>
