<svg width="18" height="19" viewBox="0 0 18 19" fill="none" xmlns="http://www.w3.org/2000/svg">
<path fill-rule="evenodd" clip-rule="evenodd" d="M5.31299 4.41699C5.38253 4.31266 5.49962 4.25 5.625 4.25H13.875C14.0133 4.25 14.1404 4.32612 14.2056 4.44805C14.2709 4.56999 14.2637 4.71794 14.187 4.83301L12.687 7.08301C12.6175 7.18734 12.5004 7.25 12.375 7.25H4.125C3.9867 7.25 3.85963 7.17388 3.79437 7.05195C3.72911 6.93001 3.73627 6.78206 3.81299 6.66699L5.31299 4.41699ZM5.82569 5L4.8257 6.5H12.1743L13.1743 5H5.82569Z" fill="#5F6577"/>
<path fill-rule="evenodd" clip-rule="evenodd" d="M5.31299 11.9169C5.38253 11.8127 5.49962 11.75 5.625 11.75H13.875C14.0133 11.75 14.1404 11.8261 14.2056 11.9481C14.2709 12.07 14.2637 12.2179 14.187 12.3331L12.687 14.583C12.6175 14.6873 12.5004 14.75 12.375 14.75H4.125C3.9867 14.75 3.85963 14.6739 3.79437 14.5519C3.72911 14.4301 3.73627 14.2821 3.81299 14.167L5.31299 11.9169ZM5.82569 12.5L4.8257 14H12.1743L13.1743 12.5H5.82569Z" fill="#5F6577"/>
<path fill-rule="evenodd" clip-rule="evenodd" d="M5.31299 10.8331C5.38253 10.9373 5.49962 11 5.625 11H13.875C14.0133 11 14.1404 10.9239 14.2056 10.8019C14.2709 10.68 14.2637 10.5321 14.187 10.4169L12.687 8.16695C12.6175 8.0627 12.5004 8 12.375 8H4.125C3.9867 8 3.85963 8.07613 3.79437 8.19808C3.72911 8.32003 3.73627 8.46793 3.81299 8.58305L5.31299 10.8331ZM5.82569 10.25L4.8257 8.75H12.1743L13.1743 10.25H5.82569Z" fill="#5F6577"/>
</svg>
