<svg width="16" height="16" viewBox="0 0 16 16" fill="none" xmlns="http://www.w3.org/2000/svg">
<path d="M15 2.97699V12.023C15 12.7305 14.2855 13.214 13.6285 12.9515L7.5 10.5V12C7.5 12.276 7.276 12.5 7 12.5H3C2.724 12.5 2.5 12.276 2.5 12V9.99999C2.224 9.99999 2 9.77599 2 9.49999V5.49999C2 5.22399 2.224 4.99999 2.5 4.99999H5C5.276 4.99999 5.5 5.22399 5.5 5.49999V9.49999C5.5 9.77599 5.276 9.99999 5 9.99999H3.5V11.5H6.5V10.1L6 9.90049V5.10099L13.6285 2.04849C14.2855 1.78599 15 2.26949 15 2.97699ZM1.5 5.49999C0.9475 5.49999 0.5 5.94749 0.5 6.49999V8.49999C0.5 9.05249 0.9475 9.49999 1.5 9.49999V5.49999Z" fill="#5F6577"/>
</svg>
