<svg width="16" height="16" viewBox="0 0 16 16" fill="none" xmlns="http://www.w3.org/2000/svg">
<path d="M5.91077 3.49292C6.7288 2.02542 7.13781 1.29167 7.74935 1.29167C8.36089 1.29167 8.7699 2.02542 9.58791 3.49291L9.79955 3.87257C10.032 4.28958 10.1482 4.4981 10.3295 4.63567C10.5107 4.77325 10.7364 4.82432 11.1878 4.92645L11.5988 5.01944C13.1873 5.37887 13.9816 5.55858 14.1706 6.16625C14.3596 6.77389 13.8181 7.40713 12.7351 8.67348L12.455 9.00111C12.1472 9.36097 11.9933 9.5409 11.9241 9.76352C11.8549 9.98614 11.8782 10.2262 11.9247 10.7064L11.967 11.1435C12.1307 12.8331 12.2126 13.6779 11.7179 14.0535C11.2232 14.429 10.4795 14.0866 8.99213 13.4018L8.60734 13.2246C8.18471 13.03 7.97339 12.9327 7.74935 12.9327C7.52531 12.9327 7.31399 13.03 6.89136 13.2246L6.50657 13.4018C5.01921 14.0866 4.27553 14.429 3.7808 14.0535C3.28607 13.6779 3.36794 12.8331 3.53167 11.1435L3.57402 10.7064C3.62056 10.2262 3.64382 9.98614 3.57459 9.76352C3.50537 9.5409 3.3515 9.36097 3.04376 9.00111L2.76358 8.67348C1.68062 7.40713 1.13913 6.77389 1.3281 6.16625C1.51707 5.55858 2.31134 5.37887 3.89989 5.01944L4.31086 4.92645C4.76227 4.82432 4.98798 4.77325 5.16921 4.63567C5.35043 4.4981 5.46667 4.28959 5.69913 3.87257L5.91077 3.49292Z" fill="#5F6577"/>
</svg>
