<svg width="11" height="11" viewBox="0 0 11 11" fill="none" xmlns="http://www.w3.org/2000/svg">
<g clip-path="url(#clip0_812_1957)">
<path d="M11 5.5C11 5.23539 10.7643 5.00127 10.4016 4.85393C10.1127 2.64 8.36 0.887468 6.14587 0.59844C5.99873 0.235743 5.76461 0 5.5 0C5.23539 0 5.00127 0.235743 4.85393 0.59844C2.64 0.887468 0.887468 2.64 0.59844 4.85393C0.235743 5.00106 0 5.23539 0 5.5C0 5.76461 0.235743 5.99873 0.59844 6.14587C0.887468 8.36 2.64 10.1127 4.85393 10.4016C5.00106 10.7643 5.23539 11 5.5 11C5.76461 11 5.99873 10.7643 6.14587 10.4016C8.36 10.1127 10.1127 8.36 10.4016 6.14587C10.7643 5.99873 11 5.76461 11 5.5ZM6.2476 8.95097C6.1271 8.40703 5.83827 8.02294 5.5 8.02294C5.16172 8.02294 4.8725 8.40642 4.7524 8.95097C3.40415 8.65892 2.34108 7.59606 2.04923 6.2476C2.59317 6.1271 2.97706 5.83827 2.97706 5.5C2.97706 5.16172 2.59317 4.8725 2.04923 4.7524C2.34108 3.40415 3.40415 2.34108 4.7524 2.04923C4.8725 2.59317 5.16172 2.97706 5.5 2.97706C5.83827 2.97706 6.1271 2.59317 6.2476 2.04923C7.59606 2.34108 8.65872 3.40415 8.95097 4.7524C8.40662 4.8725 8.02294 5.16172 8.02294 5.5C8.02294 5.83827 8.40642 6.1271 8.95097 6.2476C8.65872 7.59606 7.59606 8.65872 6.2476 8.95097Z" fill="#C8CDFF"/>
</g>
<defs>
<clipPath id="clip0_812_1957">
<rect width="11" height="11" fill="white"/>
</clipPath>
</defs>
</svg>
