<svg width="17" height="18" viewBox="0 0 17 18" fill="none" xmlns="http://www.w3.org/2000/svg">
<path d="M15.6719 3.9375C14.9382 3.9375 14.3438 4.56722 14.3438 5.34375C14.3438 5.50322 14.3743 5.65369 14.4202 5.79656L11.1828 8.74828C10.9557 8.55675 10.6723 8.4375 10.3594 8.4375C9.99841 8.4375 9.67195 8.59106 9.43288 8.83856L6.89695 7.49419C6.84756 6.76491 6.27939 6.1875 5.57812 6.1875C4.84475 6.1875 4.25 6.81722 4.25 7.59375C4.25 7.80638 4.29781 8.00578 4.3775 8.18634L1.79191 11.3431C1.64687 11.2857 1.49202 11.25 1.32812 11.25C0.594734 11.25 0 11.8797 0 12.6562C0 13.4328 0.594734 14.0625 1.32812 14.0625C2.06152 14.0625 2.65625 13.4328 2.65625 12.6562C2.65625 12.4692 2.62013 12.2912 2.55744 12.1281L5.185 8.93025C5.31011 8.97131 5.44027 9 5.57812 9C5.96461 9 6.30937 8.82225 6.55216 8.54297L9.03256 9.85978C9.04134 10.6287 9.63101 11.25 10.3594 11.25C11.093 11.25 11.6875 10.6203 11.6875 9.84375C11.6875 9.81872 11.6819 9.79538 11.6806 9.77063L15.1353 6.62822C15.2997 6.70528 15.4803 6.75 15.6719 6.75C16.4055 6.75 17 6.12056 17 5.34375C17 4.56722 16.4055 3.9375 15.6719 3.9375Z" fill="#5F6577"/>
</svg>
