<svg width="23" height="23" viewBox="0 0 23 23" fill="none" xmlns="http://www.w3.org/2000/svg">
<path d="M2.875 6.11991C2.875 5.65565 3.20599 5.27928 3.61429 5.27928L6.16752 5.27883C6.67481 5.2642 7.12235 4.89742 7.29497 4.3548C7.29951 4.34053 7.30472 4.32294 7.32344 4.25909L7.43346 3.88373C7.50078 3.65358 7.55943 3.45307 7.64151 3.27385C7.96575 2.56583 8.56566 2.07416 9.25891 1.94828C9.43438 1.91642 9.62023 1.91655 9.83355 1.91671H13.1666C13.38 1.91655 13.5658 1.91642 13.7413 1.94828C14.4345 2.07416 15.0344 2.56583 15.3586 3.27385C15.4408 3.45307 15.4994 3.65358 15.5667 3.88373L15.6767 4.25909C15.6954 4.32294 15.7007 4.34053 15.7052 4.3548C15.8779 4.89742 16.4141 5.26466 16.9214 5.27928H19.3857C19.794 5.27928 20.125 5.65565 20.125 6.11991C20.125 6.58418 19.794 6.96055 19.3857 6.96055H3.61429C3.20599 6.96055 2.875 6.58418 2.875 6.11991Z" fill="#5F6577"/>
<path fill-rule="evenodd" clip-rule="evenodd" d="M11.1124 21.0834H11.8875C14.5543 21.0834 15.8877 21.0834 16.7546 20.2344C17.6216 19.3855 17.7103 17.9928 17.8877 15.2074L18.1433 11.194C18.2396 9.68271 18.2877 8.9271 17.8527 8.44826C17.4178 7.96942 16.6833 7.96942 15.2145 7.96942H7.78554C6.31663 7.96942 5.58217 7.96942 5.14725 8.44826C4.71233 8.9271 4.76046 9.68271 4.85672 11.194L5.11231 15.2074C5.28971 17.9928 5.3784 19.3855 6.24535 20.2344C7.1123 21.0834 8.44568 21.0834 11.1124 21.0834ZM9.81937 11.6807C9.77988 11.265 9.42763 10.9616 9.03264 11.0032C8.63766 11.0448 8.34949 11.4156 8.38898 11.8313L8.86815 16.8752C8.90765 17.2909 9.25986 17.5943 9.65482 17.5527C10.0498 17.5111 10.338 17.1404 10.2985 16.7246L9.81937 11.6807ZM13.9673 11.0032C14.3623 11.0448 14.6505 11.4156 14.611 11.8313L14.1319 16.8752C14.0924 17.2909 13.7401 17.5943 13.3452 17.5527C12.9501 17.5111 12.662 17.1404 12.7015 16.7246L13.1806 11.6807C13.2201 11.265 13.5724 10.9616 13.9673 11.0032Z" fill="#5F6577"/>
</svg>
