<svg width="11" height="11" viewBox="0 0 11 11" fill="none" xmlns="http://www.w3.org/2000/svg">
<path d="M10.7682 9.65695C10.9158 9.80449 10.9987 10.0046 10.9987 10.2133C10.9987 10.4219 10.9158 10.622 10.7682 10.7696C10.6207 10.9171 10.4206 11 10.2119 11C10.0032 11 9.80311 10.9171 9.65556 10.7696L5.5 6.61295L1.34313 10.7683C1.19558 10.9158 0.995458 10.9987 0.786789 10.9987C0.578119 10.9987 0.377997 10.9158 0.230445 10.7683C0.0828937 10.6207 3.10942e-09 10.4206 0 10.2119C-3.10942e-09 10.0033 0.0828937 9.80318 0.230445 9.65564L4.38731 5.50033L0.231754 1.34371C0.0842025 1.19616 0.00130907 0.996053 0.00130907 0.787396C0.00130908 0.578739 0.0842025 0.378628 0.231754 0.231086C0.379305 0.0835431 0.579428 0.000654375 0.788098 0.000654373C0.996767 0.000654371 1.19689 0.0835431 1.34444 0.231086L5.5 4.38771L9.65687 0.230431C9.80442 0.0828885 10.0045 -3.47622e-09 10.2132 0C10.4219 3.47622e-09 10.622 0.0828885 10.7696 0.230431C10.9171 0.377974 11 0.578085 11 0.786742C11 0.995398 10.9171 1.19551 10.7696 1.34305L6.61269 5.50033L10.7682 9.65695Z" fill="#5F6577"/>
</svg>
