<svg width="23" height="23" viewBox="0 0 23 23" fill="none" xmlns="http://www.w3.org/2000/svg">
<path fill-rule="evenodd" clip-rule="evenodd" d="M20.2217 7.67004C20.1674 7.66662 20.1082 7.66664 20.047 7.66666L20.0317 7.66667H17.6277C15.6461 7.66667 13.9507 9.22641 13.9507 11.2604C13.9507 13.2944 15.6461 14.8542 17.6277 14.8542H20.0317H20.047C20.1082 14.8542 20.1674 14.8543 20.2217 14.8508C21.0266 14.7999 21.7384 14.1701 21.7983 13.2904C21.8022 13.2327 21.8021 13.1705 21.8021 13.1129V13.0972V9.42361V9.40797C21.8021 9.35034 21.8022 9.28815 21.7983 9.23047C21.7384 8.35073 21.0266 7.72087 20.2217 7.67004ZM17.4145 12.2187C17.9247 12.2187 18.3382 11.7897 18.3382 11.2604C18.3382 10.7311 17.9247 10.3021 17.4145 10.3021C16.9044 10.3021 16.4908 10.7311 16.4908 11.2604C16.4908 11.7897 16.9044 12.2187 17.4145 12.2187Z" fill="#5F6577"/>
<path fill-rule="evenodd" clip-rule="evenodd" d="M20.0463 16.2917C20.1892 16.2879 20.2974 16.4203 20.2586 16.5579C20.0663 17.2406 19.7608 17.8226 19.2709 18.3126C18.5537 19.0297 17.6443 19.348 16.5207 19.4991C15.429 19.6458 14.034 19.6458 12.2728 19.6458H10.248C8.48683 19.6458 7.09185 19.6458 6.0001 19.4991C4.87653 19.348 3.96712 19.0297 3.24994 18.3126C2.53276 17.5954 2.21448 16.6859 2.06342 15.5624C1.91664 14.4706 1.91665 13.0757 1.91666 11.3145V11.2064C1.91665 9.44517 1.91664 8.05018 2.06342 6.95844C2.21448 5.83487 2.53276 4.92546 3.24994 4.20827C3.96712 3.49109 4.87653 3.17281 6.0001 3.02176C7.09185 2.87497 8.48682 2.87498 10.248 2.875H12.2728C14.034 2.87498 15.429 2.87497 16.5207 3.02176C17.6443 3.17281 18.5537 3.49109 19.2709 4.20827C19.7608 4.69825 20.0662 5.28017 20.2586 5.96292C20.2974 6.10051 20.1892 6.23288 20.0463 6.22917L17.6276 6.22918C14.9092 6.22918 12.5131 8.37671 12.5131 11.2604C12.5131 14.1441 14.9092 16.2917 17.6276 16.2917H20.0463ZM5.51041 6.70833C5.11346 6.70833 4.79166 7.03013 4.79166 7.42708C4.79166 7.82404 5.11346 8.14583 5.51041 8.14583H9.34375C9.74069 8.14583 10.0625 7.82404 10.0625 7.42708C10.0625 7.03013 9.74069 6.70833 9.34375 6.70833H5.51041Z" fill="#5F6577"/>
</svg>
