<svg width="14" height="14" viewBox="0 0 14 14" fill="none" xmlns="http://www.w3.org/2000/svg">
<path fill-rule="evenodd" clip-rule="evenodd" d="M12.3093 4.66873C12.2763 4.66665 12.2403 4.66666 12.203 4.66667L12.1937 4.66668H10.7304C9.52422 4.66668 8.49219 5.61609 8.49219 6.85417C8.49219 8.09224 9.52422 9.04167 10.7304 9.04167H12.1937H12.203C12.2403 9.04167 12.2763 9.04173 12.3093 9.03963C12.7993 9.00866 13.2325 8.62529 13.269 8.08979C13.2714 8.05467 13.2713 8.01681 13.2713 7.98176V7.97225V5.73612V5.7266C13.2713 5.69152 13.2714 5.65367 13.269 5.61856C13.2325 5.08306 12.7993 4.69967 12.3093 4.66873ZM10.6006 7.43751C10.9112 7.43751 11.1629 7.17635 11.1629 6.85417C11.1629 6.532 10.9112 6.27084 10.6006 6.27084C10.2901 6.27084 10.0384 6.532 10.0384 6.85417C10.0384 7.17635 10.2901 7.43751 10.6006 7.43751Z" fill="#5F6577"/>
<path fill-rule="evenodd" clip-rule="evenodd" d="M12.2015 9.91667C12.2884 9.91439 12.3543 9.99495 12.3307 10.0787C12.2136 10.4943 12.0277 10.8485 11.7295 11.1468C11.2929 11.5833 10.7393 11.777 10.0554 11.869C9.3909 11.9583 8.5418 11.9583 7.46975 11.9583H6.23728C5.16525 11.9583 4.31613 11.9583 3.65159 11.869C2.96768 11.777 2.41412 11.5833 1.97757 11.1468C1.54103 10.7102 1.34729 10.1567 1.25535 9.47275C1.166 8.80822 1.166 7.95912 1.16602 6.88707V6.82127C1.166 5.74923 1.166 4.90011 1.25535 4.23557C1.34729 3.55166 1.54103 2.99811 1.97757 2.56156C2.41412 2.12501 2.96768 1.93128 3.65159 1.83933C4.31613 1.74998 5.16524 1.74999 6.23728 1.75H7.46975C8.5418 1.74999 9.3909 1.74998 10.0554 1.83933C10.7393 1.93128 11.2929 2.12501 11.7295 2.56156C12.0277 2.8598 12.2135 3.21402 12.3307 3.62961C12.3543 3.71335 12.2884 3.79392 12.2015 3.79167L10.7292 3.79167C9.0745 3.79167 7.61599 5.09886 7.61599 6.85417C7.61599 8.60948 9.0745 9.91667 10.7292 9.91667H12.2015ZM3.35352 4.08333C3.11189 4.08333 2.91602 4.27921 2.91602 4.52083C2.91602 4.76246 3.11189 4.95833 3.35352 4.95833H5.68685C5.92847 4.95833 6.12435 4.76246 6.12435 4.52083C6.12435 4.27921 5.92847 4.08333 5.68685 4.08333H3.35352Z" fill="#5F6577"/>
</svg>
