<svg width="9" height="10" viewBox="0 0 9 10" fill="none" xmlns="http://www.w3.org/2000/svg">
<g clip-path="url(#clip0_812_2010)">
<path d="M7.68189 1.81797C6.869 1.00444 5.74116 0.499754 4.5 0.5C3.25886 0.499754 2.13086 1.00444 1.31796 1.81797C0.504422 2.63087 -0.000263569 3.75886 1.03266e-07 5C-0.000263569 6.24116 0.504422 7.36914 1.31796 8.18204C2.13086 8.99558 3.25886 9.50026 4.5 9.5C5.74116 9.50026 6.869 8.99558 7.68189 8.18204C8.49556 7.36914 9.00025 6.24116 9 5C9.00025 3.75886 8.49558 2.63087 7.68189 1.81797ZM7.022 2.478C7.66823 3.12487 8.06639 4.01353 8.06667 5C8.06641 5.98647 7.66823 6.87513 7.022 7.522C6.37501 8.16823 5.48633 8.56641 4.5 8.56665C3.51353 8.56641 2.62487 8.16823 1.978 7.522C1.33175 6.87513 0.933592 5.98647 0.933328 5C0.933574 4.01355 1.33175 3.12487 1.97798 2.478C2.62485 1.83177 3.51353 1.43359 4.49998 1.43333C5.48633 1.43361 6.37501 1.83177 7.022 2.478Z" fill="#FF6367"/>
<path d="M4.50091 6.34314C4.22019 6.34314 3.99023 6.57322 3.99023 6.85382C3.99023 7.13442 4.22019 7.36436 4.50091 7.36436C4.7815 7.36436 5.01158 7.1344 5.01158 6.85382C5.01158 6.57322 4.7815 6.34314 4.50091 6.34314Z" fill="#FF6367"/>
<path d="M4.49948 5.98412C4.61432 5.98412 4.77553 5.47682 4.81693 5.32853C4.9457 4.89909 5.05156 4.31381 5.05156 3.82983C5.05156 3.25211 4.89037 2.63568 4.49948 2.63568C4.10833 2.63568 3.94727 3.25209 3.94727 3.82983C3.94727 4.31383 4.05326 4.89911 4.18202 5.32853C4.22344 5.47682 4.38438 5.98412 4.49948 5.98412Z" fill="#FF6367"/>
</g>
<defs>
<clipPath id="clip0_812_2010">
<rect width="9" height="9" fill="white" transform="translate(0 0.5)"/>
</clipPath>
</defs>
</svg>
