<svg width="22" height="22" viewBox="0 0 22 22" fill="none" xmlns="http://www.w3.org/2000/svg">
<path fill-rule="evenodd" clip-rule="evenodd" d="M16.041 2.52087C16.4207 2.52087 16.7285 2.82868 16.7285 3.20837V5.27087H18.791C19.1707 5.27087 19.4785 5.57868 19.4785 5.95837C19.4785 6.33807 19.1707 6.64587 18.791 6.64587H16.7285V8.70837C16.7285 9.08807 16.4207 9.39587 16.041 9.39587C15.6613 9.39587 15.3535 9.08807 15.3535 8.70837V6.64587H13.291C12.9113 6.64587 12.6035 6.33807 12.6035 5.95837C12.6035 5.57868 12.9113 5.27087 13.291 5.27087H15.3535V3.20837C15.3535 2.82868 15.6613 2.52087 16.041 2.52087Z" fill="#5F6577"/>
<path d="M1.83398 5.95837C1.83398 4.01383 1.83398 3.04156 2.43808 2.43747C3.04217 1.83337 4.01444 1.83337 5.95898 1.83337C7.90353 1.83337 8.8758 1.83337 9.4799 2.43747C10.084 3.04156 10.084 4.01383 10.084 5.95837C10.084 7.90292 10.084 8.87519 9.4799 9.47929C8.8758 10.0834 7.90353 10.0834 5.95898 10.0834C4.01444 10.0834 3.04217 10.0834 2.43808 9.47929C1.83398 8.87519 1.83398 7.90292 1.83398 5.95837Z" fill="#5F6577"/>
<path d="M11.916 16.0416C11.916 14.0971 11.916 13.1248 12.5201 12.5207C13.1242 11.9166 14.0965 11.9166 16.041 11.9166C17.9855 11.9166 18.9578 11.9166 19.5619 12.5207C20.166 13.1248 20.166 14.0971 20.166 16.0416C20.166 17.9862 20.166 18.9585 19.5619 19.5625C18.9578 20.1666 17.9855 20.1666 16.041 20.1666C14.0965 20.1666 13.1242 20.1666 12.5201 19.5625C11.916 18.9585 11.916 17.9862 11.916 16.0416Z" fill="#5F6577"/>
<path d="M1.83398 16.0416C1.83398 14.0971 1.83398 13.1248 2.43808 12.5207C3.04217 11.9166 4.01444 11.9166 5.95898 11.9166C7.90353 11.9166 8.8758 11.9166 9.4799 12.5207C10.084 13.1248 10.084 14.0971 10.084 16.0416C10.084 17.9862 10.084 18.9585 9.4799 19.5625C8.8758 20.1666 7.90353 20.1666 5.95898 20.1666C4.01444 20.1666 3.04217 20.1666 2.43808 19.5625C1.83398 18.9585 1.83398 17.9862 1.83398 16.0416Z" fill="#5F6577"/>
</svg>
