<svg width="12" height="11" viewBox="0 0 12 11" fill="none" xmlns="http://www.w3.org/2000/svg">
<path d="M7.17049 3.19108L5.91049 2.32886C5.45038 2.01892 4.90487 1.82482 4.33124 1.76695C3.75761 1.70908 3.17704 1.78957 2.65049 1.99997C2.07333 2.24202 1.58704 2.62701 1.25001 3.10871C0.912977 3.59041 0.739528 4.14835 0.750489 4.71553V6.84442C0.749831 7.17902 0.823486 7.51044 0.967233 7.81968C1.11098 8.12892 1.32199 8.40989 1.58816 8.64649C1.85433 8.88309 2.17043 9.07065 2.51832 9.19842C2.86622 9.3262 3.23907 9.39167 3.61549 9.39108H4.03049C4.69239 9.39654 5.34365 9.24298 5.91549 8.94664C6.3857 8.69002 6.91525 8.53151 7.46431 8.48301C8.01337 8.43451 8.56766 8.4973 9.08549 8.66664L11.2505 9.38664" stroke="#FF6367" stroke-width="0.8" stroke-miterlimit="10"/>
<path d="M0.75 4.70662C0.75 5.26888 1.00128 5.80811 1.44855 6.20569C1.89582 6.60326 2.50246 6.82662 3.135 6.82662H10.635C10.8047 6.82662 10.9675 6.76668 11.0875 6.66C11.2076 6.55331 11.275 6.40861 11.275 6.25773C11.2746 6.17154 11.2519 6.0866 11.2085 6.00951C11.1651 5.93242 11.1023 5.86527 11.025 5.81329L9.445 4.73773C9.70757 4.49137 9.84928 4.16239 9.83896 3.82316C9.82865 3.48393 9.66715 3.16223 9.39 2.92884C9.11285 2.69545 8.74275 2.56949 8.36111 2.57865C7.97947 2.58782 7.61757 2.73137 7.355 2.97773C7.28332 3.04151 7.22114 3.11321 7.17 3.19106C6.99921 3.43455 6.92648 3.72237 6.96372 4.00739C7.00096 4.29241 7.14597 4.55775 7.375 4.75995" stroke="#FF6367" stroke-width="0.8" stroke-miterlimit="10"/>
<path d="M3.13477 4.28436C3.32256 4.28436 3.50851 4.31724 3.682 4.38112C3.8555 4.445 4.01314 4.53863 4.14593 4.65666C4.27872 4.7747 4.38405 4.91482 4.45591 5.06904C4.52778 5.22326 4.56477 5.38855 4.56477 5.55547C4.56477 5.7224 4.52778 5.88769 4.45591 6.04191C4.38405 6.19613 4.27872 6.33625 4.14593 6.45428C4.01314 6.57232 3.8555 6.66595 3.682 6.72983C3.50851 6.79371 3.32256 6.82658 3.13477 6.82658" stroke="#FF6367" stroke-width="0.8" stroke-miterlimit="10"/>
</svg>
