<svg width="15" height="15" viewBox="0 0 15 15" fill="none" xmlns="http://www.w3.org/2000/svg">
<path d="M14.997 5.1269C14.7304 2.91208 12.7001 1.24803 10.3593 0.477534C11.4257 1.63182 12.1875 3.42477 12.1875 5.62494H13.0107L9.5947 9.41885C9.52146 9.40127 9.45408 9.3749 9.37498 9.3749H7.96875V5.62494H11.25C11.25 2.24998 9.23143 0 7.5 0C5.76857 0 3.75004 2.24998 3.75004 5.62494H7.03126V9.3749H5.62502C5.54592 9.3749 5.47854 9.40127 5.4053 9.41885L1.98932 5.62494H2.81255C2.81255 3.42477 3.57426 1.63182 4.64066 0.477534C2.29986 1.25096 0.269607 2.91501 0.00300769 5.1269C-0.0292185 5.3935 0.202224 5.62494 0.471753 5.62494H0.726633L4.73147 10.0751C4.71097 10.1513 4.6846 10.2274 4.6846 10.3124V14.0624C4.6846 14.5809 5.10354 14.9998 5.62209 14.9998H9.37205C9.8906 14.9998 10.3095 14.5809 10.3095 14.0624V10.3124C10.3095 10.2274 10.2832 10.1542 10.2627 10.0751L14.2704 5.62494H14.5253C14.7978 5.62494 15.0292 5.39643 14.997 5.1269Z" fill="url(#paint0_linear_812_2238)"/>
<defs>
<linearGradient id="paint0_linear_812_2238" x1="7.5" y1="0" x2="7.5" y2="14.9998" gradientUnits="userSpaceOnUse">
<stop stop-color="#A2FFCD"/>
<stop offset="1" stop-color="#829FFF"/>
</linearGradient>
</defs>
</svg>
